<?xml version="1.0" encoding="utf-8" standalone="no"?>
<!DOCTYPE svg PUBLIC "-//W3C//DTD SVG 1.1//EN"
  "http://www.w3.org/Graphics/SVG/1.1/DTD/svg11.dtd">
<svg xmlns:xlink="http://www.w3.org/1999/xlink" width="460.8pt" height="180.72pt" viewBox="0 0 460.8 180.72" xmlns="http://www.w3.org/2000/svg" version="1.1">
 <metadata>
  <rdf:RDF xmlns:dc="http://purl.org/dc/elements/1.1/" xmlns:cc="http://creativecommons.org/ns#" xmlns:rdf="http://www.w3.org/1999/02/22-rdf-syntax-ns#">
   <cc:Work>
    <dc:type rdf:resource="http://purl.org/dc/dcmitype/StillImage"/>
    <dc:date>2026-10-06T10:39:37.069505</dc:date>
    <dc:format>image/svg+xml</dc:format>
    <dc:creator>
     <cc:Agent>
      <dc:title>Matplotlib v3.11.2, https://matplotlib.org/</dc:title>
     </cc:Agent>
    </dc:creator>
   </cc:Work>
  </rdf:RDF>
 </metadata>
 <defs>
  <style type="text/css">*{stroke-linejoin: round; stroke-linecap: butt}</style>
 </defs>
 <g id="figure_1">
  <g id="patch_1">
   <path d="M 0 180.72 
L 460.8 180.72 
L 460.8 0 
L 0 0 
L 0 180.72 
z
" style="fill: none"/>
  </g>
  <g id="axes_1">
   <g id="patch_2">
    <path d="M 44.4 90.36 
L 92.76 90.36 
L 92.76 48.78 
L 44.4 48.78 
z
" clip-path="url(#pe6e767d22b)" style="fill: #0a3fb5"/>
   </g>
   <g id="patch_3">
    <path d="M 107.64 90.36 
L 156 90.36 
L 156 48.78 
L 107.64 48.78 
z
" clip-path="url(#pe6e767d22b)" style="fill: #e03a1e"/>
   </g>
   <g id="patch_4">
    <path d="M 170.88 90.36 
L 219.24 90.36 
L 219.24 48.78 
L 170.88 48.78 
z
" clip-path="url(#pe6e767d22b)" style="fill: #f1f1f3"/>
   </g>
   <g id="patch_5">
    <path d="M 234.12 90.36 
L 282.48 90.36 
L 282.48 48.78 
L 234.12 48.78 
z
" clip-path="url(#pe6e767d22b)" style="fill: #f1f1f3"/>
   </g>
   <g id="patch_6">
    <path d="M 297.36 90.36 
L 345.72 90.36 
L 345.72 48.78 
L 297.36 48.78 
z
" clip-path="url(#pe6e767d22b)" style="fill: #f1f1f3"/>
   </g>
   <g id="patch_7">
    <path d="M 360.6 90.36 
L 408.96 90.36 
L 408.96 48.78 
L 360.6 48.78 
z
" clip-path="url(#pe6e767d22b)" style="fill: #f1f1f3"/>
   </g>
   <g id="text_1">
    <!-- 1 -->
    <g style="fill: #ffffff" transform="translate(64.269062 76.845391) scale(0.2 -0.2)">
     <defs>
      <path id="Inter-Bold-540" d="M 2341 4656 
L 1319 4656 
L 291 3934 
L 291 3063 
L 1356 3816 
L 1388 3816 
L 1388 0 
L 2341 0 
L 2341 4656 
z
" transform="scale(0.015625)"/>
     </defs>
     <use xlink:href="#Inter-Bold-540"/>
    </g>
   </g>
   <g id="text_2">
    <!-- 2 -->
    <g style="fill: #ffffff" transform="translate(125.521562 76.845391) scale(0.2 -0.2)">
     <defs>
      <path id="Inter-Bold-541" d="M 388 0 
L 3681 0 
L 3681 784 
L 1713 784 
L 1713 819 
L 2416 1513 
C 3369 2391 3619 2822 3619 3344 
C 3619 4150 2963 4719 1978 4719 
C 1013 4719 344 4134 344 3228 
L 1256 3228 
C 1256 3681 1538 3956 1972 3956 
C 2388 3956 2694 3700 2694 3284 
C 2694 2909 2459 2647 2038 2234 
L 388 688 
L 388 0 
z
" transform="scale(0.015625)"/>
     </defs>
     <use xlink:href="#Inter-Bold-541"/>
    </g>
   </g>
   <g id="text_3">
    <!-- 3 -->
    <g style="fill: #16161a" transform="translate(188.605312 76.845391) scale(0.2 -0.2)">
     <defs>
      <path id="Inter-Bold-543" d="M 2059 -63 
C 3097 -63 3838 509 3838 1303 
C 3838 1881 3475 2297 2797 2388 
L 2797 2422 
C 3313 2522 3669 2891 3669 3413 
C 3669 4141 3031 4719 2075 4719 
C 1128 4719 413 4163 400 3366 
L 1319 3366 
C 1328 3728 1663 3956 2069 3956 
C 2472 3956 2744 3713 2744 3353 
C 2744 2981 2428 2728 1975 2728 
L 1544 2728 
L 1544 2019 
L 1975 2019 
C 2516 2019 2844 1750 2844 1366 
C 2844 988 2522 728 2063 728 
C 1622 728 1284 956 1269 1306 
L 309 1306 
C 322 497 1047 -63 2059 -63 
z
" transform="scale(0.015625)"/>
     </defs>
     <use xlink:href="#Inter-Bold-543"/>
    </g>
   </g>
   <g id="text_4">
    <!-- 4 -->
    <g style="fill: #16161a" transform="translate(251.5375 76.845391) scale(0.2 -0.2)">
     <defs>
      <path id="Inter-Bold-544" d="M 316 828 
L 2544 828 
L 2544 0 
L 3459 0 
L 3459 828 
L 4041 828 
L 4041 1597 
L 3459 1597 
L 3459 4656 
L 2263 4656 
L 316 1581 
L 316 828 
z
M 2563 1597 
L 1278 1597 
L 1278 1634 
L 2525 3606 
L 2563 3606 
L 2563 1597 
z
" transform="scale(0.015625)"/>
     </defs>
     <use xlink:href="#Inter-Bold-544"/>
    </g>
   </g>
   <g id="text_5">
    <!-- 5 -->
    <g style="fill: #16161a" transform="translate(315.147812 76.845391) scale(0.2 -0.2)">
     <defs>
      <path id="Inter-Bold-545" d="M 2075 -63 
C 3097 -63 3797 609 3797 1547 
C 3797 2441 3178 3078 2338 3078 
C 1934 3078 1584 2916 1419 2691 
L 1394 2691 
L 1516 3869 
L 3541 3869 
L 3541 4656 
L 725 4656 
L 500 2213 
L 1356 2063 
C 1500 2247 1778 2369 2056 2369 
C 2534 2369 2872 2022 2872 1525 
C 2872 1031 2541 694 2075 694 
C 1675 694 1350 941 1331 1306 
L 403 1306 
C 422 509 1119 -63 2075 -63 
z
" transform="scale(0.015625)"/>
     </defs>
     <use xlink:href="#Inter-Bold-545"/>
    </g>
   </g>
   <g id="text_6">
    <!-- 6 -->
    <g style="fill: #16161a" transform="translate(378.28625 76.845391) scale(0.2 -0.2)">
     <defs>
      <path id="Inter-Bold-547" d="M 2138 -63 
C 3166 -63 3866 616 3866 1556 
C 3866 2431 3253 3059 2431 3059 
C 1922 3059 1472 2816 1263 2409 
L 1231 2409 
C 1231 3328 1556 3897 2172 3897 
C 2541 3897 2800 3694 2878 3366 
L 3816 3366 
C 3722 4131 3088 4719 2172 4719 
C 1028 4719 294 3784 294 2219 
C 294 513 1191 -63 2138 -63 
z
M 2131 694 
C 1669 694 1328 1069 1328 1528 
C 1328 1984 1681 2363 2138 2363 
C 2600 2363 2938 2000 2938 1531 
C 2938 1056 2591 694 2131 694 
z
" transform="scale(0.015625)"/>
     </defs>
     <use xlink:href="#Inter-Bold-547"/>
    </g>
   </g>
   <g id="text_7">
    <!-- A: roll a 1 -->
    <g style="fill: #0a3fb5" transform="translate(45.790078 37.585385) scale(0.105 -0.105)">
     <defs>
      <path id="Inter-Bold-2" d="M 153 0 
L 1206 0 
L 1553 1081 
L 3206 1081 
L 3566 0 
L 4625 0 
L 2994 4656 
L 1744 4656 
L 153 0 
z
M 1791 1828 
L 1925 2247 
C 2066 2716 2203 3269 2359 3909 
C 2522 3275 2669 2725 2819 2247 
L 2959 1828 
L 1791 1828 
z
" transform="scale(0.015625)"/>
      <path id="Inter-Bold-5e4" d="M 1069 631 
C 1375 631 1609 863 1609 1166 
C 1609 1472 1375 1703 1069 1703 
C 763 1703 528 1472 528 1166 
C 528 863 763 631 1069 631 
z
M 1069 2950 
C 1375 2950 1609 3181 1609 3488 
C 1609 3791 1375 4022 1069 4022 
C 763 4022 528 3791 528 3488 
C 528 3181 763 2950 1069 2950 
z
" transform="scale(0.015625)"/>
      <path id="Inter-Bold-6eb" transform="scale(0.015625)"/>
      <path id="Inter-Bold-356" d="M 400 0 
L 1338 0 
L 1338 1988 
C 1338 2422 1653 2719 2084 2719 
C 2222 2719 2406 2697 2491 2672 
L 2491 3509 
C 2406 3528 2284 3541 2188 3541 
C 1794 3541 1472 3316 1344 2884 
L 1306 2884 
L 1306 3494 
L 400 3494 
L 400 0 
z
" transform="scale(0.015625)"/>
      <path id="Inter-Bold-318" d="M 1963 -69 
C 3013 -69 3672 656 3672 1731 
C 3672 2813 3013 3538 1963 3538 
C 909 3538 253 2813 253 1731 
C 253 656 909 -69 1963 -69 
z
M 1963 669 
C 1463 669 1209 1125 1209 1734 
C 1209 2353 1463 2800 1963 2800 
C 2463 2800 2719 2350 2719 1734 
C 2719 1125 2463 669 1963 669 
z
" transform="scale(0.015625)"/>
      <path id="Inter-Bold-2e2" d="M 1338 4656 
L 400 4656 
L 400 0 
L 1338 0 
L 1338 4656 
z
" transform="scale(0.015625)"/>
      <path id="Inter-Bold-1fc" d="M 1375 -69 
C 1891 -69 2228 159 2397 484 
L 2428 484 
L 2428 0 
L 3316 0 
L 3316 2353 
C 3316 3200 2584 3538 1834 3538 
C 1053 3538 491 3191 313 2584 
L 1172 2441 
C 1247 2666 1469 2844 1831 2844 
C 2181 2844 2378 2675 2378 2378 
L 2378 2363 
C 2378 2134 2131 2109 1531 2050 
C 844 1984 213 1759 213 978 
C 213 288 709 -69 1375 -69 
z
M 1641 591 
C 1331 591 1113 731 1113 1003 
C 1113 1284 1344 1419 1691 1469 
C 1897 1497 2269 1547 2384 1628 
L 2384 1250 
C 2384 881 2078 591 1641 591 
z
" transform="scale(0.015625)"/>
     </defs>
     <use xlink:href="#Inter-Bold-2"/>
     <use xlink:href="#Inter-Bold-5e4" transform="translate(74.65625 0)"/>
     <use xlink:href="#Inter-Bold-6eb" transform="translate(108.0625 0)"/>
     <use xlink:href="#Inter-Bold-356" transform="translate(131.75 0)"/>
     <use xlink:href="#Inter-Bold-318" transform="translate(170.03125 0)"/>
     <use xlink:href="#Inter-Bold-2e2" transform="translate(231.359375 0)"/>
     <use xlink:href="#Inter-Bold-2e2" transform="translate(258.453125 0)"/>
     <use xlink:href="#Inter-Bold-6eb" transform="translate(285.546875 0)"/>
     <use xlink:href="#Inter-Bold-1fc" transform="translate(309.234375 0)"/>
     <use xlink:href="#Inter-Bold-6eb" transform="translate(367.296875 0)"/>
     <use xlink:href="#Inter-Bold-540" transform="translate(390.984375 0)"/>
    </g>
   </g>
   <g id="text_8">
    <!-- B: roll a 2 -->
    <g style="fill: #e03a1e" transform="translate(108.432891 37.585385) scale(0.105 -0.105)">
     <defs>
      <path id="Inter-Bold-41" d="M 422 0 
L 2388 0 
C 3438 0 3988 547 3988 1284 
C 3988 1975 3494 2388 2969 2413 
L 2969 2459 
C 3447 2566 3806 2906 3806 3459 
C 3806 4156 3291 4656 2269 4656 
L 422 4656 
L 422 0 
z
M 1375 784 
L 1375 2047 
L 2225 2047 
C 2703 2047 3006 1766 3006 1375 
C 3006 1022 2759 784 2200 784 
L 1375 784 
z
M 1375 2700 
L 1375 3878 
L 2147 3878 
C 2594 3878 2841 3647 2841 3306 
C 2841 2931 2538 2700 2128 2700 
L 1375 2700 
z
" transform="scale(0.015625)"/>
     </defs>
     <use xlink:href="#Inter-Bold-41"/>
     <use xlink:href="#Inter-Bold-5e4" transform="translate(66.15625 0)"/>
     <use xlink:href="#Inter-Bold-6eb" transform="translate(99.5625 0)"/>
     <use xlink:href="#Inter-Bold-356" transform="translate(123.25 0)"/>
     <use xlink:href="#Inter-Bold-318" transform="translate(161.53125 0)"/>
     <use xlink:href="#Inter-Bold-2e2" transform="translate(222.859375 0)"/>
     <use xlink:href="#Inter-Bold-2e2" transform="translate(249.953125 0)"/>
     <use xlink:href="#Inter-Bold-6eb" transform="translate(277.046875 0)"/>
     <use xlink:href="#Inter-Bold-1fc" transform="translate(300.734375 0)"/>
     <use xlink:href="#Inter-Bold-6eb" transform="translate(358.796875 0)"/>
     <use xlink:href="#Inter-Bold-541" transform="translate(382.484375 0)"/>
    </g>
   </g>
   <g id="text_9">
    <!-- A and B cannot happen on the same roll: they are mutually exclusive -->
    <g style="fill: #16161a" transform="translate(58.099922 117.546923) scale(0.105 -0.105)">
     <defs>
      <path id="Inter-SemiBold-2" d="M 156 0 
L 1069 0 
L 1450 1153 
L 3191 1153 
L 3588 0 
L 4503 0 
L 2841 4656 
L 1781 4656 
L 156 0 
z
M 1672 1825 
L 1869 2419 
C 1997 2834 2138 3356 2303 4006 
C 2475 3363 2622 2847 2759 2419 
L 2963 1825 
L 1672 1825 
z
" transform="scale(0.015625)"/>
      <path id="Inter-SemiBold-6eb" transform="scale(0.015625)"/>
      <path id="Inter-SemiBold-1fc" d="M 1406 -72 
C 1950 -72 2281 181 2434 481 
L 2466 481 
L 2466 0 
L 3244 0 
L 3244 2334 
C 3244 3266 2475 3538 1819 3538 
C 1119 3538 544 3241 338 2625 
L 1091 2472 
C 1175 2703 1416 2913 1822 2913 
C 2219 2913 2431 2713 2431 2372 
L 2431 2356 
C 2431 2116 2175 2106 1569 2041 
C 894 1969 238 1769 238 981 
C 238 294 741 -72 1406 -72 
z
M 1616 531 
C 1272 531 1025 688 1025 991 
C 1025 1309 1300 1444 1666 1494 
C 1875 1522 2328 1578 2438 1666 
L 2438 1253 
C 2438 866 2116 531 1616 531 
z
" transform="scale(0.015625)"/>
      <path id="Inter-SemiBold-307" d="M 1244 2047 
C 1244 2553 1556 2847 1991 2847 
C 2416 2847 2672 2566 2672 2097 
L 2672 0 
L 3484 0 
L 3484 2222 
C 3484 3063 3009 3538 2291 3538 
C 1778 3538 1416 3288 1209 2797 
L 1200 3494 
L 431 3494 
L 431 0 
L 1244 0 
L 1244 2047 
z
" transform="scale(0.015625)"/>
      <path id="Inter-SemiBold-256" d="M 1719 -63 
C 2322 -63 2591 300 2719 553 
L 2769 553 
L 2769 0 
L 3566 0 
L 3566 4656 
L 2753 4656 
L 2753 2916 
L 2719 2916 
C 2594 3163 2338 3538 1716 3538 
C 909 3538 278 2903 278 1741 
C 278 594 891 -63 1719 -63 
z
M 1941 606 
C 1397 606 1109 1088 1109 1744 
C 1109 2394 1391 2869 1941 2869 
C 2475 2869 2769 2425 2769 1744 
C 2769 1063 2469 606 1941 606 
z
" transform="scale(0.015625)"/>
      <path id="Inter-SemiBold-41" d="M 469 0 
L 2347 0 
C 3413 0 3934 544 3934 1269 
C 3934 1972 3434 2384 2941 2409 
L 2941 2456 
C 3394 2563 3753 2881 3753 3447 
C 3753 4138 3256 4656 2250 4656 
L 469 4656 
L 469 0 
z
M 1303 697 
L 1303 2069 
L 2244 2069 
C 2763 2069 3088 1747 3088 1331 
C 3088 963 2831 697 2216 697 
L 1303 697 
z
M 1303 2672 
L 1303 3963 
L 2163 3963 
C 2663 3963 2919 3700 2919 3341 
C 2919 2928 2584 2672 2144 2672 
L 1303 2672 
z
" transform="scale(0.015625)"/>
      <path id="Inter-SemiBold-24b" d="M 1947 -72 
C 2731 -72 3313 353 3463 1050 
L 2703 1209 
C 2619 831 2353 588 1953 588 
C 1388 588 1106 1084 1106 1731 
C 1106 2384 1388 2878 1953 2878 
C 2347 2878 2606 2644 2694 2281 
L 3453 2441 
C 3303 3122 2725 3538 1947 3538 
C 928 3538 278 2816 278 1728 
C 278 653 928 -72 1947 -72 
z
" transform="scale(0.015625)"/>
      <path id="Inter-SemiBold-318" d="M 1947 -72 
C 2966 -72 3619 653 3619 1728 
C 3619 2816 2966 3538 1947 3538 
C 928 3538 278 2816 278 1728 
C 278 653 928 -72 1947 -72 
z
M 1947 588 
C 1381 588 1106 1094 1106 1731 
C 1106 2375 1381 2878 1947 2878 
C 2516 2878 2794 2375 2794 1731 
C 2794 1094 2516 588 1947 588 
z
" transform="scale(0.015625)"/>
      <path id="Inter-SemiBold-37b" d="M 2047 3494 
L 1372 3494 
L 1372 4325 
L 559 4325 
L 559 3494 
L 63 3494 
L 63 2856 
L 559 2856 
L 559 916 
C 559 297 931 -47 1600 -47 
C 1772 -47 1966 -25 2144 28 
L 2016 656 
C 1938 638 1794 616 1719 616 
C 1472 616 1372 731 1372 984 
L 1372 2856 
L 2047 2856 
L 2047 3494 
z
" transform="scale(0.015625)"/>
      <path id="Inter-SemiBold-29f" d="M 1244 2047 
C 1244 2553 1556 2847 1991 2847 
C 2416 2847 2672 2566 2672 2097 
L 2672 0 
L 3488 0 
L 3488 2222 
C 3488 3063 3009 3538 2291 3538 
C 1794 3538 1441 3306 1231 2847 
L 1231 4656 
L 431 4656 
L 431 0 
L 1244 0 
L 1244 2047 
z
" transform="scale(0.015625)"/>
      <path id="Inter-SemiBold-34d" d="M 431 -1306 
L 1244 -1306 
L 1244 553 
L 1278 553 
C 1403 300 1675 -63 2275 -63 
C 3103 -63 3719 594 3719 1741 
C 3719 2903 3084 3538 2278 3538 
C 1656 3538 1400 3163 1278 2916 
L 1225 2916 
L 1225 3494 
L 431 3494 
L 431 -1306 
z
M 2056 606 
C 1525 606 1228 1063 1228 1744 
C 1228 2425 1519 2869 2056 2869 
C 2606 2869 2884 2394 2884 1744 
C 2884 1088 2600 606 2056 606 
z
" transform="scale(0.015625)"/>
      <path id="Inter-SemiBold-267" d="M 1975 -72 
C 2753 -72 3297 300 3466 866 
L 2719 1019 
C 2609 722 2341 566 1984 566 
C 1463 566 1109 897 1088 1519 
L 3519 1519 
L 3519 1775 
C 3519 3000 2775 3538 1922 3538 
C 922 3538 278 2800 278 1725 
C 278 631 922 -72 1975 -72 
z
M 1091 2072 
C 1128 2538 1428 2900 1925 2900 
C 2409 2900 2681 2572 2728 2072 
L 1091 2072 
z
" transform="scale(0.015625)"/>
      <path id="Inter-SemiBold-369" d="M 1753 -72 
C 2634 -72 3253 384 3253 1047 
C 3253 1538 2938 1850 2275 1991 
L 1681 2116 
C 1325 2194 1184 2322 1184 2525 
C 1184 2763 1447 2931 1791 2931 
C 2166 2931 2366 2738 2447 2494 
L 3172 2638 
C 3031 3178 2572 3538 1781 3538 
C 944 3538 372 3122 372 2475 
C 372 1963 694 1641 1353 1497 
L 1950 1369 
C 2269 1300 2422 1172 2422 969 
C 2422 731 2169 550 1769 550 
C 1372 550 1128 716 1034 1063 
L 275 919 
C 397 284 950 -72 1753 -72 
z
" transform="scale(0.015625)"/>
      <path id="Inter-SemiBold-300" d="M 431 0 
L 1244 0 
L 1244 2141 
C 1244 2606 1538 2856 1894 2856 
C 2238 2856 2484 2625 2484 2269 
L 2484 0 
L 3278 0 
L 3278 2194 
C 3278 2584 3519 2856 3913 2856 
C 4247 2856 4516 2663 4516 2231 
L 4516 0 
L 5331 0 
L 5331 2356 
C 5331 3131 4850 3550 4222 3550 
C 3731 3550 3294 3294 3106 2791 
C 2956 3288 2659 3550 2209 3550 
C 1794 3550 1400 3325 1219 2828 
L 1194 3494 
L 431 3494 
L 431 0 
z
" transform="scale(0.015625)"/>
      <path id="Inter-SemiBold-356" d="M 431 0 
L 1244 0 
L 1244 2056 
C 1244 2500 1578 2813 2031 2813 
C 2175 2813 2347 2791 2416 2772 
L 2416 3519 
C 2338 3531 2209 3541 2119 3541 
C 1719 3541 1381 3313 1256 2909 
L 1219 2909 
L 1219 3494 
L 431 3494 
L 431 0 
z
" transform="scale(0.015625)"/>
      <path id="Inter-SemiBold-2e2" d="M 1244 4656 
L 431 4656 
L 431 0 
L 1244 0 
L 1244 4656 
z
" transform="scale(0.015625)"/>
      <path id="Inter-SemiBold-5e3" d="M 1019 -53 
C 1300 -53 1522 166 1522 447 
C 1522 725 1300 944 1019 944 
C 738 944 519 725 519 447 
C 519 166 738 -53 1019 -53 
z
M 1019 2334 
C 1300 2334 1522 2553 1522 2834 
C 1522 3116 1300 3331 1019 3331 
C 738 3331 519 3116 519 2834 
C 519 2553 738 2334 1019 2334 
z
" transform="scale(0.015625)"/>
      <path id="Inter-SemiBold-3e8" d="M 397 -1247 
C 506 -1291 709 -1331 941 -1331 
C 1572 -1331 1931 -1009 2144 -450 
L 3644 3494 
L 2784 3494 
L 2125 1594 
C 2022 1294 1944 991 1866 684 
C 1797 991 1728 1291 1628 1594 
L 991 3494 
L 122 3494 
L 1441 -13 
L 1391 -234 
C 1306 -634 1050 -734 684 -638 
L 588 -613 
L 397 -1247 
z
" transform="scale(0.015625)"/>
      <path id="Inter-SemiBold-395" d="M 1628 -44 
C 2134 -44 2500 200 2709 700 
L 2716 0 
L 3488 0 
L 3488 3494 
L 2672 3494 
L 2672 1447 
C 2672 941 2359 647 1928 647 
C 1503 647 1244 928 1244 1397 
L 1244 3494 
L 431 3494 
L 431 1272 
C 431 431 909 -44 1628 -44 
z
" transform="scale(0.015625)"/>
      <path id="Inter-SemiBold-3e3" d="M 156 0 
L 1034 0 
L 1466 700 
C 1603 931 1706 1153 1809 1366 
C 1919 1153 2028 931 2166 700 
L 2597 0 
L 3484 0 
L 2325 1775 
L 3431 3494 
L 2556 3494 
L 2188 2900 
C 2047 2666 1938 2434 1831 2219 
C 1722 2434 1613 2663 1475 2900 
L 1119 3494 
L 225 3494 
L 1313 1794 
L 156 0 
z
" transform="scale(0.015625)"/>
      <path id="Inter-SemiBold-2b2" d="M 431 0 
L 1244 0 
L 1244 3494 
L 431 3494 
L 431 0 
z
M 838 3988 
C 1097 3988 1313 4188 1313 4434 
C 1313 4681 1097 4878 838 4878 
C 578 4878 366 4681 366 4434 
C 366 4188 578 3988 838 3988 
z
" transform="scale(0.015625)"/>
      <path id="Inter-SemiBold-3d6" d="M 1422 0 
L 2331 0 
L 3638 3494 
L 2775 3494 
L 2141 1594 
C 2038 1284 1963 972 1888 656 
C 1809 975 1731 1284 1628 1594 
L 991 3494 
L 122 3494 
L 1422 0 
z
" transform="scale(0.015625)"/>
     </defs>
     <use xlink:href="#Inter-SemiBold-2"/>
     <use xlink:href="#Inter-SemiBold-6eb" transform="translate(72.75 0)"/>
     <use xlink:href="#Inter-SemiBold-1fc" transform="translate(97.953125 0)"/>
     <use xlink:href="#Inter-SemiBold-307" transform="translate(155.375 0)"/>
     <use xlink:href="#Inter-SemiBold-256" transform="translate(216.5625 0)"/>
     <use xlink:href="#Inter-SemiBold-6eb" transform="translate(278.96875 0)"/>
     <use xlink:href="#Inter-SemiBold-41" transform="translate(304.171875 0)"/>
     <use xlink:href="#Inter-SemiBold-6eb" transform="translate(370.09375 0)"/>
     <use xlink:href="#Inter-SemiBold-24b" transform="translate(395.296875 0)"/>
     <use xlink:href="#Inter-SemiBold-1fc" transform="translate(454.53125 0)"/>
     <use xlink:href="#Inter-SemiBold-307" transform="translate(511.953125 0)"/>
     <use xlink:href="#Inter-SemiBold-307" transform="translate(573.140625 0)"/>
     <use xlink:href="#Inter-SemiBold-318" transform="translate(634.328125 0)"/>
     <use xlink:href="#Inter-SemiBold-37b" transform="translate(695.21875 0)"/>
     <use xlink:href="#Inter-SemiBold-6eb" transform="translate(730.515625 0)"/>
     <use xlink:href="#Inter-SemiBold-29f" transform="translate(755.71875 0)"/>
     <use xlink:href="#Inter-SemiBold-1fc" transform="translate(816.953125 0)"/>
     <use xlink:href="#Inter-SemiBold-34d" transform="translate(874.375 0)"/>
     <use xlink:href="#Inter-SemiBold-34d" transform="translate(936.78125 0)"/>
     <use xlink:href="#Inter-SemiBold-267" transform="translate(999.1875 0)"/>
     <use xlink:href="#Inter-SemiBold-307" transform="translate(1058.3125 0)"/>
     <use xlink:href="#Inter-SemiBold-6eb" transform="translate(1119.5 0)"/>
     <use xlink:href="#Inter-SemiBold-318" transform="translate(1144.703125 0)"/>
     <use xlink:href="#Inter-SemiBold-307" transform="translate(1205.59375 0)"/>
     <use xlink:href="#Inter-SemiBold-6eb" transform="translate(1266.78125 0)"/>
     <use xlink:href="#Inter-SemiBold-37b" transform="translate(1291.984375 0)"/>
     <use xlink:href="#Inter-SemiBold-29f" transform="translate(1327.484375 0)"/>
     <use xlink:href="#Inter-SemiBold-267" transform="translate(1388.71875 0)"/>
     <use xlink:href="#Inter-SemiBold-6eb" transform="translate(1447.84375 0)"/>
     <use xlink:href="#Inter-SemiBold-369" transform="translate(1473.046875 0)"/>
     <use xlink:href="#Inter-SemiBold-1fc" transform="translate(1527.984375 0)"/>
     <use xlink:href="#Inter-SemiBold-300" transform="translate(1585.40625 0)"/>
     <use xlink:href="#Inter-SemiBold-267" transform="translate(1675.453125 0)"/>
     <use xlink:href="#Inter-SemiBold-6eb" transform="translate(1734.578125 0)"/>
     <use xlink:href="#Inter-SemiBold-356" transform="translate(1759.78125 0)"/>
     <use xlink:href="#Inter-SemiBold-318" transform="translate(1797.28125 0)"/>
     <use xlink:href="#Inter-SemiBold-2e2" transform="translate(1858.171875 0)"/>
     <use xlink:href="#Inter-SemiBold-2e2" transform="translate(1884.34375 0)"/>
     <use xlink:href="#Inter-SemiBold-5e3" transform="translate(1910.515625 0)"/>
     <use xlink:href="#Inter-SemiBold-6eb" transform="translate(1942.40625 0)"/>
     <use xlink:href="#Inter-SemiBold-37b" transform="translate(1967.609375 0)"/>
     <use xlink:href="#Inter-SemiBold-29f" transform="translate(2003.109375 0)"/>
     <use xlink:href="#Inter-SemiBold-267" transform="translate(2064.34375 0)"/>
     <use xlink:href="#Inter-SemiBold-3e8" transform="translate(2121.609375 0)"/>
     <use xlink:href="#Inter-SemiBold-6eb" transform="translate(2180.453125 0)"/>
     <use xlink:href="#Inter-SemiBold-1fc" transform="translate(2205.65625 0)"/>
     <use xlink:href="#Inter-SemiBold-356" transform="translate(2263.078125 0)"/>
     <use xlink:href="#Inter-SemiBold-267" transform="translate(2300.578125 0)"/>
     <use xlink:href="#Inter-SemiBold-6eb" transform="translate(2359.703125 0)"/>
     <use xlink:href="#Inter-SemiBold-300" transform="translate(2384.90625 0)"/>
     <use xlink:href="#Inter-SemiBold-395" transform="translate(2474.953125 0)"/>
     <use xlink:href="#Inter-SemiBold-37b" transform="translate(2536.1875 0)"/>
     <use xlink:href="#Inter-SemiBold-395" transform="translate(2571.484375 0)"/>
     <use xlink:href="#Inter-SemiBold-1fc" transform="translate(2632.71875 0)"/>
     <use xlink:href="#Inter-SemiBold-2e2" transform="translate(2690.140625 0)"/>
     <use xlink:href="#Inter-SemiBold-2e2" transform="translate(2716.3125 0)"/>
     <use xlink:href="#Inter-SemiBold-3e8" transform="translate(2743.3125 0)"/>
     <use xlink:href="#Inter-SemiBold-6eb" transform="translate(2802.15625 0)"/>
     <use xlink:href="#Inter-SemiBold-267" transform="translate(2827.359375 0)"/>
     <use xlink:href="#Inter-SemiBold-3e3" transform="translate(2884.390625 0)"/>
     <use xlink:href="#Inter-SemiBold-24b" transform="translate(2939.1875 0)"/>
     <use xlink:href="#Inter-SemiBold-2e2" transform="translate(2997.4375 0)"/>
     <use xlink:href="#Inter-SemiBold-395" transform="translate(3023.609375 0)"/>
     <use xlink:href="#Inter-SemiBold-369" transform="translate(3084.84375 0)"/>
     <use xlink:href="#Inter-SemiBold-2b2" transform="translate(3139.78125 0)"/>
     <use xlink:href="#Inter-SemiBold-3d6" transform="translate(3165.953125 0)"/>
     <use xlink:href="#Inter-SemiBold-267" transform="translate(3222.78125 0)"/>
    </g>
   </g>
   <g id="text_10">
    <!-- P(A or B) = P(A) + P(B) = 1/6 + 1/6 = 1/3 ≈ 33.3% -->
    <g style="fill: #16161a" transform="translate(104.401875 141.535385) scale(0.11 -0.11)">
     <defs>
      <path id="Inter-Regular-178" d="M 563 0 
L 1156 0 
L 1156 1684 
L 2159 1684 
C 3244 1684 3744 2344 3744 3175 
C 3744 4003 3244 4656 2156 4656 
L 563 4656 
L 563 0 
z
M 1156 2206 
L 1156 4134 
L 2125 4134 
C 2869 4134 3153 3725 3153 3175 
C 3153 2622 2869 2206 2131 2206 
L 1156 2206 
z
" transform="scale(0.015625)"/>
      <path id="Inter-Regular-5a8" d="M 681 2191 
C 681 1278 956 325 1488 -578 
L 2034 -578 
C 1497 531 1253 1363 1253 2191 
C 1253 3103 1550 4250 2034 5234 
L 1488 5234 
C 1019 4463 681 3206 681 2191 
z
" transform="scale(0.015625)"/>
      <path id="Inter-Regular-2" d="M 163 0 
L 794 0 
L 1244 1300 
L 3163 1300 
L 3628 0 
L 4253 0 
L 2541 4656 
L 1853 4656 
L 163 0 
z
M 1425 1819 
L 1753 2763 
C 1853 3050 1997 3494 2194 4181 
C 2391 3506 2528 3075 2641 2763 
L 2978 1819 
L 1425 1819 
z
" transform="scale(0.015625)"/>
      <path id="Inter-Regular-6eb" transform="scale(0.015625)"/>
      <path id="Inter-Regular-318" d="M 1916 -75 
C 2869 -75 3513 647 3513 1725 
C 3513 2819 2869 3538 1916 3538 
C 966 3538 325 2819 325 1725 
C 325 647 966 -75 1916 -75 
z
M 1916 428 
C 1219 428 897 1038 897 1725 
C 897 2422 1219 3034 1916 3034 
C 2622 3034 2944 2419 2944 1725 
C 2944 1038 2622 428 1916 428 
z
" transform="scale(0.015625)"/>
      <path id="Inter-Regular-356" d="M 494 0 
L 1056 0 
L 1056 2188 
C 1056 2659 1425 3000 1928 3000 
C 2078 3000 2231 2975 2266 2969 
L 2266 3534 
C 2200 3538 2063 3544 1981 3544 
C 1566 3544 1203 3309 1075 2956 
L 1038 2956 
L 1038 3494 
L 494 3494 
L 494 0 
z
" transform="scale(0.015625)"/>
      <path id="Inter-Regular-41" d="M 563 0 
L 2266 0 
C 3363 0 3825 538 3825 1241 
C 3825 1972 3316 2372 2881 2400 
L 2881 2444 
C 3288 2553 3644 2825 3644 3422 
C 3644 4103 3184 4656 2213 4656 
L 563 4656 
L 563 0 
z
M 1156 525 
L 1156 2113 
L 2281 2113 
C 2878 2113 3253 1713 3253 1247 
C 3253 844 2975 525 2250 525 
L 1156 525 
z
M 1156 2613 
L 1156 4131 
L 2200 4131 
C 2803 4131 3075 3813 3075 3409 
C 3075 2928 2681 2613 2181 2613 
L 1156 2613 
z
" transform="scale(0.015625)"/>
      <path id="Inter-Regular-5a9" d="M 300 -578 
L 847 -578 
C 1369 309 1653 1263 1653 2191 
C 1653 3203 1316 4466 847 5234 
L 300 5234 
C 784 4250 1081 3103 1081 2191 
C 1081 1388 853 563 300 -578 
z
" transform="scale(0.015625)"/>
      <path id="Inter-Regular-5ff" d="M 706 1394 
L 3531 1394 
L 3531 1913 
L 706 1913 
L 706 1394 
z
M 706 2750 
L 3531 2750 
L 3531 3269 
L 706 3269 
L 706 2750 
z
" transform="scale(0.015625)"/>
      <path id="Inter-Regular-601" d="M 1853 797 
L 2381 797 
L 2381 2059 
L 3625 2059 
L 3625 2556 
L 2381 2556 
L 2381 3816 
L 1853 3816 
L 1853 2556 
L 609 2556 
L 609 2059 
L 1853 2059 
L 1853 797 
z
" transform="scale(0.015625)"/>
      <path id="Inter-Regular-540" d="M 2041 4656 
L 1313 4656 
L 300 3909 
L 300 3272 
L 1425 4106 
L 1456 4106 
L 1456 0 
L 2041 0 
L 2041 4656 
z
" transform="scale(0.015625)"/>
      <path id="Inter-Regular-5b1" d="M 2163 4875 
L 1644 4875 
L 144 -700 
L 663 -700 
L 2163 4875 
z
" transform="scale(0.015625)"/>
      <path id="Inter-Regular-547" d="M 2019 -63 
C 2969 -63 3588 634 3588 1503 
C 3588 2403 2925 3044 2128 3044 
C 1644 3044 1231 2813 981 2425 
L 944 2425 
C 944 3544 1375 4194 2091 4194 
C 2575 4194 2866 3888 2969 3484 
L 3550 3484 
C 3438 4216 2872 4719 2091 4719 
C 1034 4719 381 3788 381 2150 
C 381 434 1241 -63 2019 -63 
z
M 2019 459 
C 1447 459 1028 947 1028 1497 
C 1028 2041 1469 2528 2034 2528 
C 2597 2528 3013 2072 3013 1503 
C 3013 922 2578 459 2019 459 
z
" transform="scale(0.015625)"/>
      <path id="Inter-Regular-543" d="M 1984 -63 
C 2897 -63 3572 503 3572 1266 
C 3572 1853 3225 2284 2631 2381 
L 2631 2419 
C 3106 2559 3403 2944 3403 3469 
C 3403 4131 2872 4719 2003 4719 
C 1184 4719 516 4216 491 3484 
L 1063 3484 
C 1081 3938 1516 4203 1991 4203 
C 2497 4203 2822 3900 2822 3438 
C 2822 2956 2447 2644 1903 2644 
L 1525 2644 
L 1525 2128 
L 1903 2128 
C 2594 2128 2984 1775 2984 1272 
C 2984 788 2559 459 1975 459 
C 1444 459 1025 731 991 1175 
L 391 1175 
C 422 438 1072 -63 1984 -63 
z
" transform="scale(0.015625)"/>
      <path id="Inter-Regular-606" d="M 525 1175 
L 1038 1175 
C 1028 1566 1206 1719 1453 1719 
C 1616 1719 1725 1644 1934 1463 
C 2275 1169 2494 1047 2800 1047 
C 3278 1047 3725 1359 3709 2113 
L 3197 2113 
C 3206 1747 3044 1559 2781 1559 
C 2622 1559 2525 1628 2300 1816 
C 1959 2100 1744 2234 1431 2234 
C 963 2234 519 1941 525 1175 
z
M 525 2550 
L 1038 2550 
C 1028 2953 1209 3103 1453 3103 
C 1619 3103 1728 3025 1947 2834 
C 2284 2541 2500 2428 2800 2428 
C 3275 2428 3725 2734 3709 3491 
L 3197 3491 
C 3206 3128 3044 2938 2781 2938 
C 2619 2938 2519 3016 2297 3200 
C 1963 3478 1744 3616 1431 3616 
C 963 3616 519 3319 525 2550 
z
" transform="scale(0.015625)"/>
      <path id="Inter-Regular-5e0" d="M 922 -41 
C 1156 -41 1344 147 1344 381 
C 1344 616 1156 803 922 803 
C 688 803 500 616 500 381 
C 500 147 688 -41 922 -41 
z
" transform="scale(0.015625)"/>
      <path id="Inter-Regular-6ca" d="M 4656 -91 
C 5247 -91 5566 344 5566 856 
L 5566 1100 
C 5566 1609 5256 2044 4656 2044 
C 4069 2044 3741 1613 3741 1100 
L 3741 856 
C 3741 344 4059 -91 4656 -91 
z
M 1634 2597 
C 2225 2597 2544 3031 2544 3544 
L 2544 3788 
C 2544 4297 2234 4731 1634 4731 
C 1047 4731 719 4300 719 3788 
L 719 3544 
C 719 3031 1038 2597 1634 2597 
z
M 1263 0 
L 1791 0 
L 4991 4656 
L 4463 4656 
L 1263 0 
z
M 4656 319 
C 4334 319 4219 578 4219 856 
L 4219 1100 
C 4219 1375 4344 1638 4656 1638 
C 4981 1638 5088 1375 5088 1100 
L 5088 856 
C 5088 578 4972 319 4656 319 
z
M 1634 3006 
C 1313 3006 1197 3266 1197 3544 
L 1197 3788 
C 1197 4063 1322 4325 1634 4325 
C 1959 4325 2066 4063 2066 3788 
L 2066 3544 
C 2066 3266 1950 3006 1634 3006 
z
" transform="scale(0.015625)"/>
     </defs>
     <use xlink:href="#Inter-Regular-178"/>
     <use xlink:href="#Inter-Regular-5a8" transform="translate(63.875 0)"/>
     <use xlink:href="#Inter-Regular-2" transform="translate(100.34375 0)"/>
     <use xlink:href="#Inter-Regular-6eb" transform="translate(169.34375 0)"/>
     <use xlink:href="#Inter-Regular-318" transform="translate(197.46875 0)"/>
     <use xlink:href="#Inter-Regular-356" transform="translate(257.4375 0)"/>
     <use xlink:href="#Inter-Regular-6eb" transform="translate(295.078125 0)"/>
     <use xlink:href="#Inter-Regular-41" transform="translate(323.203125 0)"/>
     <use xlink:href="#Inter-Regular-5a9" transform="translate(388.640625 0)"/>
     <use xlink:href="#Inter-Regular-6eb" transform="translate(425.109375 0)"/>
     <use xlink:href="#Inter-Regular-5ff" transform="translate(453.234375 0)"/>
     <use xlink:href="#Inter-Regular-6eb" transform="translate(519.390625 0)"/>
     <use xlink:href="#Inter-Regular-178" transform="translate(547.515625 0)"/>
     <use xlink:href="#Inter-Regular-5a8" transform="translate(611.390625 0)"/>
     <use xlink:href="#Inter-Regular-2" transform="translate(647.859375 0)"/>
     <use xlink:href="#Inter-Regular-5a9" transform="translate(716.859375 0)"/>
     <use xlink:href="#Inter-Regular-6eb" transform="translate(753.328125 0)"/>
     <use xlink:href="#Inter-Regular-601" transform="translate(781.453125 0)"/>
     <use xlink:href="#Inter-Regular-6eb" transform="translate(847.609375 0)"/>
     <use xlink:href="#Inter-Regular-178" transform="translate(875.734375 0)"/>
     <use xlink:href="#Inter-Regular-5a8" transform="translate(939.609375 0)"/>
     <use xlink:href="#Inter-Regular-41" transform="translate(976.078125 0)"/>
     <use xlink:href="#Inter-Regular-5a9" transform="translate(1041.515625 0)"/>
     <use xlink:href="#Inter-Regular-6eb" transform="translate(1077.984375 0)"/>
     <use xlink:href="#Inter-Regular-5ff" transform="translate(1106.109375 0)"/>
     <use xlink:href="#Inter-Regular-6eb" transform="translate(1172.265625 0)"/>
     <use xlink:href="#Inter-Regular-540" transform="translate(1200.390625 0)"/>
     <use xlink:href="#Inter-Regular-5b1" transform="translate(1241.0625 0)"/>
     <use xlink:href="#Inter-Regular-547" transform="translate(1277.09375 0)"/>
     <use xlink:href="#Inter-Regular-6eb" transform="translate(1339.109375 0)"/>
     <use xlink:href="#Inter-Regular-601" transform="translate(1367.234375 0)"/>
     <use xlink:href="#Inter-Regular-6eb" transform="translate(1433.390625 0)"/>
     <use xlink:href="#Inter-Regular-540" transform="translate(1461.515625 0)"/>
     <use xlink:href="#Inter-Regular-5b1" transform="translate(1502.1875 0)"/>
     <use xlink:href="#Inter-Regular-547" transform="translate(1538.21875 0)"/>
     <use xlink:href="#Inter-Regular-6eb" transform="translate(1600.234375 0)"/>
     <use xlink:href="#Inter-Regular-5ff" transform="translate(1628.359375 0)"/>
     <use xlink:href="#Inter-Regular-6eb" transform="translate(1694.515625 0)"/>
     <use xlink:href="#Inter-Regular-540" transform="translate(1722.640625 0)"/>
     <use xlink:href="#Inter-Regular-5b1" transform="translate(1763.3125 0)"/>
     <use xlink:href="#Inter-Regular-543" transform="translate(1799.34375 0)"/>
     <use xlink:href="#Inter-Regular-6eb" transform="translate(1861.109375 0)"/>
     <use xlink:href="#Inter-Regular-606" transform="translate(1889.234375 0)"/>
     <use xlink:href="#Inter-Regular-6eb" transform="translate(1955.390625 0)"/>
     <use xlink:href="#Inter-Regular-543" transform="translate(1983.515625 0)"/>
     <use xlink:href="#Inter-Regular-543" transform="translate(2045.28125 0)"/>
     <use xlink:href="#Inter-Regular-5e0" transform="translate(2104.796875 0)"/>
     <use xlink:href="#Inter-Regular-543" transform="translate(2130.921875 0)"/>
     <use xlink:href="#Inter-Regular-6ca" transform="translate(2192.6875 0)"/>
    </g>
   </g>
  </g>
 </g>
 <defs>
  <clipPath id="pe6e767d22b">
   <rect x="7.2" y="7.2" width="446.4" height="166.32"/>
  </clipPath>
 </defs>
</svg>
