<?xml version="1.0" encoding="utf-8" standalone="no"?>
<!DOCTYPE svg PUBLIC "-//W3C//DTD SVG 1.1//EN"
  "http://www.w3.org/Graphics/SVG/1.1/DTD/svg11.dtd">
<svg xmlns:xlink="http://www.w3.org/1999/xlink" width="489.077604pt" height="236.810601pt" viewBox="0 0 489.077604 236.810601" xmlns="http://www.w3.org/2000/svg" version="1.1">
 <metadata>
  <rdf:RDF xmlns:dc="http://purl.org/dc/elements/1.1/" xmlns:cc="http://creativecommons.org/ns#" xmlns:rdf="http://www.w3.org/1999/02/22-rdf-syntax-ns#">
   <cc:Work>
    <dc:type rdf:resource="http://purl.org/dc/dcmitype/StillImage"/>
    <dc:date>2026-10-06T12:33:34.753851</dc:date>
    <dc:format>image/svg+xml</dc:format>
    <dc:creator>
     <cc:Agent>
      <dc:title>Matplotlib v3.11.2, https://matplotlib.org/</dc:title>
     </cc:Agent>
    </dc:creator>
   </cc:Work>
  </rdf:RDF>
 </metadata>
 <defs>
  <style type="text/css">*{stroke-linejoin: round; stroke-linecap: butt}</style>
 </defs>
 <g id="figure_1">
  <g id="patch_1">
   <path d="M 0 236.810601 
L 489.077604 236.810601 
L 489.077604 0 
L 0 0 
L 0 236.810601 
z
" style="fill: none"/>
  </g>
  <g id="axes_1">
   <g id="line2d_1">
    <path d="M 30.4875 103.144639 
L 171.020833 54.190073 
" clip-path="url(#p4b582f70aa)" style="fill: none; stroke: #0a3fb5; stroke-width: 2; stroke-linecap: square"/>
   </g>
   <g id="line2d_2">
    <path d="M 30.4875 103.144639 
L 171.020833 152.099205 
" clip-path="url(#p4b582f70aa)" style="fill: none; stroke: #b4b4ba; stroke-width: 1.4; stroke-linecap: square"/>
   </g>
   <g id="line2d_3">
    <path d="M 171.020833 54.190073 
L 328.0875 33.792337 
" clip-path="url(#p4b582f70aa)" style="fill: none; stroke: #0a3fb5; stroke-width: 2; stroke-linecap: square"/>
   </g>
   <g id="line2d_4">
    <path d="M 171.020833 54.190073 
L 328.0875 74.587809 
" clip-path="url(#p4b582f70aa)" style="fill: none; stroke: #b4b4ba; stroke-width: 1.4; stroke-linecap: square"/>
   </g>
   <g id="PathCollection_1">
    <defs>
     <path id="m0b5b3f6419" d="M 0 3.872983 
C 1.027127 3.872983 2.012324 3.464901 2.738613 2.738613 
C 3.464901 2.012324 3.872983 1.027127 3.872983 0 
C 3.872983 -1.027127 3.464901 -2.012324 2.738613 -2.738613 
C 2.012324 -3.464901 1.027127 -3.872983 0 -3.872983 
C -1.027127 -3.872983 -2.012324 -3.464901 -2.738613 -2.738613 
C -3.464901 -2.012324 -3.872983 -1.027127 -3.872983 0 
C -3.872983 1.027127 -3.464901 2.012324 -2.738613 2.738613 
C -2.012324 3.464901 -1.027127 3.872983 0 3.872983 
z
" style="stroke: #16161a"/>
    </defs>
    <g clip-path="url(#p4b582f70aa)">
     <use xlink:href="#m0b5b3f6419" x="30.4875" y="103.144639" style="fill: #16161a; stroke: #16161a"/>
    </g>
   </g>
   <g id="text_1">
    <!-- Deck of 52 -->
    <g style="fill: #6b6b70" transform="translate(7.2 82.746903) scale(0.09 -0.09)">
     <defs>
      <path id="Inter-Regular-54" d="M 2016 0 
C 3434 0 4238 881 4238 2338 
C 4238 3781 3434 4656 2075 4656 
L 563 4656 
L 563 0 
L 2016 0 
z
M 1156 525 
L 1156 4131 
L 2034 4131 
C 3113 4131 3663 3456 3663 2338 
C 3663 1206 3113 525 1978 525 
L 1156 525 
z
" transform="scale(0.015625)"/>
      <path id="Inter-Regular-267" d="M 1963 -75 
C 2678 -75 3200 284 3363 813 
L 2819 963 
C 2688 606 2378 425 1966 425 
C 1347 425 922 825 894 1556 
L 3419 1556 
L 3419 1791 
C 3419 3081 2638 3538 1897 3538 
C 944 3538 325 2791 325 1719 
C 325 644 950 -75 1963 -75 
z
M 897 2031 
C 931 2566 1297 3038 1897 3038 
C 2472 3038 2794 2625 2847 2031 
L 897 2031 
z
" transform="scale(0.015625)"/>
      <path id="Inter-Regular-24b" d="M 1916 -75 
C 2600 -75 3156 297 3344 919 
L 2806 1072 
C 2703 694 2384 428 1916 428 
C 1219 428 897 1038 897 1725 
C 897 2422 1219 3034 1916 3034 
C 2375 3034 2688 2778 2791 2419 
L 3331 2572 
C 3141 3181 2591 3538 1916 3538 
C 966 3538 325 2819 325 1725 
C 325 647 966 -75 1916 -75 
z
" transform="scale(0.015625)"/>
      <path id="Inter-Regular-2d9" d="M 494 0 
L 1056 0 
L 1056 1288 
L 1425 1634 
L 2703 0 
L 3425 0 
L 1853 1994 
L 3316 3494 
L 2619 3494 
L 1125 1953 
L 1056 1953 
L 1056 4656 
L 494 4656 
L 494 0 
z
" transform="scale(0.015625)"/>
      <path id="Inter-Regular-6eb" transform="scale(0.015625)"/>
      <path id="Inter-Regular-318" d="M 1916 -75 
C 2869 -75 3513 647 3513 1725 
C 3513 2819 2869 3538 1916 3538 
C 966 3538 325 2819 325 1725 
C 325 647 966 -75 1916 -75 
z
M 1916 428 
C 1219 428 897 1038 897 1725 
C 897 2422 1219 3034 1916 3034 
C 2622 3034 2944 2419 2944 1725 
C 2944 1038 2622 428 1916 428 
z
" transform="scale(0.015625)"/>
      <path id="Inter-Regular-288" d="M 2119 3494 
L 1313 3494 
L 1313 3834 
C 1313 4172 1463 4353 1809 4353 
C 1966 4353 2053 4319 2113 4300 
L 2269 4781 
C 2184 4819 2009 4875 1744 4875 
C 1234 4875 750 4566 750 3959 
L 750 3494 
L 63 3494 
L 63 3013 
L 750 3013 
L 750 0 
L 1313 0 
L 1313 3013 
L 2119 3013 
L 2119 3494 
z
" transform="scale(0.015625)"/>
      <path id="Inter-Regular-545" d="M 1956 -63 
C 2853 -63 3509 594 3509 1488 
C 3509 2388 2881 3047 2028 3047 
C 1706 3047 1397 2934 1206 2775 
L 1181 2775 
L 1341 4134 
L 3291 4134 
L 3291 4656 
L 841 4656 
L 566 2350 
L 1122 2281 
C 1306 2422 1631 2525 1919 2525 
C 2503 2525 2928 2078 2928 1478 
C 2928 888 2519 459 1956 459 
C 1488 459 1106 759 1069 1175 
L 494 1175 
C 525 463 1138 -63 1956 -63 
z
" transform="scale(0.015625)"/>
      <path id="Inter-Regular-541" d="M 481 0 
L 3447 0 
L 3447 522 
L 1300 522 
L 1300 559 
L 2319 1644 
C 3141 2519 3369 2916 3369 3419 
C 3369 4147 2778 4719 1947 4719 
C 1119 4719 494 4159 494 3334 
L 1063 3334 
C 1063 3859 1400 4203 1931 4203 
C 2428 4203 2806 3900 2806 3413 
C 2806 2984 2544 2666 2028 2106 
L 481 428 
L 481 0 
z
" transform="scale(0.015625)"/>
     </defs>
     <use xlink:href="#Inter-Regular-54"/>
     <use xlink:href="#Inter-Regular-267" transform="translate(72.171875 0)"/>
     <use xlink:href="#Inter-Regular-24b" transform="translate(130.46875 0)"/>
     <use xlink:href="#Inter-Regular-2d9" transform="translate(187.59375 0)"/>
     <use xlink:href="#Inter-Regular-6eb" transform="translate(242.484375 0)"/>
     <use xlink:href="#Inter-Regular-318" transform="translate(270.609375 0)"/>
     <use xlink:href="#Inter-Regular-288" transform="translate(330.578125 0)"/>
     <use xlink:href="#Inter-Regular-6eb" transform="translate(367.59375 0)"/>
     <use xlink:href="#Inter-Regular-545" transform="translate(395.71875 0)"/>
     <use xlink:href="#Inter-Regular-541" transform="translate(456.515625 0)"/>
    </g>
   </g>
   <g id="PathCollection_2">
    <defs>
     <path id="m17806bd9da" d="M 0 8.660254 
C 2.296726 8.660254 4.499694 7.747755 6.123724 6.123724 
C 7.747755 4.499694 8.660254 2.296726 8.660254 0 
C 8.660254 -2.296726 7.747755 -4.499694 6.123724 -6.123724 
C 4.499694 -7.747755 2.296726 -8.660254 0 -8.660254 
C -2.296726 -8.660254 -4.499694 -7.747755 -6.123724 -6.123724 
C -7.747755 -4.499694 -8.660254 -2.296726 -8.660254 0 
C -8.660254 2.296726 -7.747755 4.499694 -6.123724 6.123724 
C -4.499694 7.747755 -2.296726 8.660254 0 8.660254 
z
" style="stroke: #0a3fb5; stroke-width: 1.4"/>
    </defs>
    <g clip-path="url(#p4b582f70aa)">
     <use xlink:href="#m17806bd9da" x="171.020833" y="54.190073" style="fill: #0a3fb5; stroke: #0a3fb5; stroke-width: 1.4"/>
    </g>
   </g>
   <g id="PathCollection_3">
    <defs>
     <path id="m819355ccce" d="M 0 8.660254 
C 2.296726 8.660254 4.499694 7.747755 6.123724 6.123724 
C 7.747755 4.499694 8.660254 2.296726 8.660254 0 
C 8.660254 -2.296726 7.747755 -4.499694 6.123724 -6.123724 
C 4.499694 -7.747755 2.296726 -8.660254 0 -8.660254 
C -2.296726 -8.660254 -4.499694 -7.747755 -6.123724 -6.123724 
C -7.747755 -4.499694 -8.660254 -2.296726 -8.660254 0 
C -8.660254 2.296726 -7.747755 4.499694 -6.123724 6.123724 
C -4.499694 7.747755 -2.296726 8.660254 0 8.660254 
z
" style="stroke: #b4b4ba; stroke-width: 1.4"/>
    </defs>
    <g clip-path="url(#p4b582f70aa)">
     <use xlink:href="#m819355ccce" x="171.020833" y="152.099205" style="fill: #f1f1f3; stroke: #b4b4ba; stroke-width: 1.4"/>
    </g>
   </g>
   <g id="text_2">
    <g id="patch_2">
     <path d="M 83.525833 76.943086 
L 109.715833 76.943086 
L 109.715833 64.073438 
L 83.525833 64.073438 
z
" style="fill: #ffffff"/>
    </g>
    <!-- 13/52 -->
    <g style="fill: #0a3fb5" transform="translate(84.515833 73.782188) scale(0.09 -0.09)">
     <defs>
      <path id="Inter-SemiBold-540" d="M 2241 4656 
L 1316 4656 
L 294 3925 
L 294 3131 
L 1381 3913 
L 1413 3913 
L 1413 0 
L 2241 0 
L 2241 4656 
z
" transform="scale(0.015625)"/>
      <path id="Inter-SemiBold-543" d="M 2034 -63 
C 3028 -63 3750 506 3750 1291 
C 3750 1872 3391 2294 2741 2384 
L 2741 2422 
C 3244 2534 3581 2906 3581 3431 
C 3581 4138 2978 4719 2050 4719 
C 1147 4719 447 4178 431 3403 
L 1234 3403 
C 1247 3797 1613 4038 2044 4038 
C 2481 4038 2769 3775 2769 3381 
C 2769 2972 2434 2700 1950 2700 
L 1538 2700 
L 1538 2056 
L 1950 2056 
C 2541 2056 2891 1759 2891 1334 
C 2891 919 2534 638 2034 638 
C 1563 638 1197 881 1175 1263 
L 334 1263 
C 356 478 1056 -63 2034 -63 
z
" transform="scale(0.015625)"/>
      <path id="Inter-SemiBold-5b1" d="M 2319 4875 
L 1606 4875 
L 106 -700 
L 819 -700 
L 2319 4875 
z
" transform="scale(0.015625)"/>
      <path id="Inter-SemiBold-545" d="M 2034 -63 
C 3016 -63 3703 606 3703 1528 
C 3703 2422 3078 3069 2234 3069 
C 1859 3069 1522 2922 1347 2719 
L 1322 2719 
L 1456 3956 
L 3459 3956 
L 3459 4656 
L 763 4656 
L 522 2256 
L 1278 2134 
C 1434 2306 1728 2422 2013 2422 
C 2522 2422 2891 2041 2891 1509 
C 2891 984 2534 616 2034 616 
C 1613 616 1269 881 1244 1263 
L 434 1263 
C 456 494 1125 -63 2034 -63 
z
" transform="scale(0.015625)"/>
      <path id="Inter-SemiBold-541" d="M 419 0 
L 3603 0 
L 3603 697 
L 1575 697 
L 1575 731 
L 2384 1556 
C 3294 2434 3534 2853 3534 3369 
C 3534 4147 2903 4719 1969 4719 
C 1047 4719 394 4144 394 3263 
L 1191 3263 
C 1191 3741 1491 4038 1959 4038 
C 2400 4038 2731 3766 2731 3328 
C 2731 2934 2488 2653 2034 2191 
L 419 600 
L 419 0 
z
" transform="scale(0.015625)"/>
     </defs>
     <use xlink:href="#Inter-SemiBold-540"/>
     <use xlink:href="#Inter-SemiBold-543" transform="translate(42.28125 0)"/>
     <use xlink:href="#Inter-SemiBold-5b1" transform="translate(105.90625 0)"/>
     <use xlink:href="#Inter-SemiBold-545" transform="translate(143.796875 0)"/>
     <use xlink:href="#Inter-SemiBold-541" transform="translate(206.6875 0)"/>
    </g>
   </g>
   <g id="text_3">
    <g id="patch_3">
     <path d="M 82.549896 142.215841 
L 110.691771 142.215841 
L 110.691771 129.346192 
L 82.549896 129.346192 
z
" style="fill: #ffffff"/>
    </g>
    <!-- 39/52 -->
    <g style="fill: #6b6b70" transform="translate(83.539896 139.054942) scale(0.09 -0.09)">
     <defs>
      <path id="Inter-SemiBold-54a" d="M 1953 -66 
C 3066 -66 3772 869 3772 2466 
C 3772 4172 2888 4716 2006 4722 
C 997 4734 322 4038 322 3119 
C 322 2241 950 1603 1769 1603 
C 2272 1603 2706 1850 2931 2247 
L 2963 2247 
C 2963 1253 2597 656 1953 656 
C 1544 656 1272 900 1191 1259 
L 366 1259 
C 466 497 1078 -66 1953 -66 
z
M 1991 2244 
C 1497 2244 1134 2634 1134 3138 
C 1134 3644 1509 4041 2003 4041 
C 2503 4041 2872 3625 2872 3147 
C 2872 2659 2488 2244 1991 2244 
z
" transform="scale(0.015625)"/>
     </defs>
     <use xlink:href="#Inter-SemiBold-543"/>
     <use xlink:href="#Inter-SemiBold-54a" transform="translate(63.625 0)"/>
     <use xlink:href="#Inter-SemiBold-5b1" transform="translate(127.59375 0)"/>
     <use xlink:href="#Inter-SemiBold-545" transform="translate(165.484375 0)"/>
     <use xlink:href="#Inter-SemiBold-541" transform="translate(228.375 0)"/>
    </g>
   </g>
   <g id="PathCollection_4">
    <g clip-path="url(#p4b582f70aa)">
     <use xlink:href="#m17806bd9da" x="328.0875" y="33.792337" style="fill: #0a3fb5; stroke: #0a3fb5; stroke-width: 1.4"/>
    </g>
   </g>
   <g id="PathCollection_5">
    <g clip-path="url(#p4b582f70aa)">
     <use xlink:href="#m819355ccce" x="328.0875" y="74.587809" style="fill: #f1f1f3; stroke: #b4b4ba; stroke-width: 1.4"/>
    </g>
   </g>
   <g id="text_4">
    <g id="patch_4">
     <path d="M 233.286302 42.266935 
L 257.555365 42.266935 
L 257.555365 29.397287 
L 233.286302 29.397287 
z
" style="fill: #ffffff"/>
    </g>
    <!-- 12/51 -->
    <g style="fill: #0a3fb5" transform="translate(234.276302 39.106037) scale(0.09 -0.09)">
     <use xlink:href="#Inter-SemiBold-540"/>
     <use xlink:href="#Inter-SemiBold-541" transform="translate(42.28125 0)"/>
     <use xlink:href="#Inter-SemiBold-5b1" transform="translate(104.59375 0)"/>
     <use xlink:href="#Inter-SemiBold-545" transform="translate(142.484375 0)"/>
     <use xlink:href="#Inter-SemiBold-540" transform="translate(205.375 0)"/>
    </g>
   </g>
   <g id="text_5">
    <g id="patch_5">
     <path d="M 232.251302 78.98286 
L 258.590365 78.98286 
L 258.590365 66.113211 
L 232.251302 66.113211 
z
" style="fill: #ffffff"/>
    </g>
    <!-- 39/51 -->
    <g style="fill: #6b6b70" transform="translate(233.241302 75.821961) scale(0.09 -0.09)">
     <use xlink:href="#Inter-SemiBold-543"/>
     <use xlink:href="#Inter-SemiBold-54a" transform="translate(63.625 0)"/>
     <use xlink:href="#Inter-SemiBold-5b1" transform="translate(127.59375 0)"/>
     <use xlink:href="#Inter-SemiBold-545" transform="translate(165.484375 0)"/>
     <use xlink:href="#Inter-SemiBold-540" transform="translate(228.375 0)"/>
    </g>
   </g>
   <g id="text_6">
    <!-- 1st draw -->
    <g style="fill: #6b6b70" transform="translate(154.396029 29.71279) scale(0.085 -0.085)">
     <defs>
      <path id="Inter-Regular-540" d="M 2041 4656 
L 1313 4656 
L 300 3909 
L 300 3272 
L 1425 4106 
L 1456 4106 
L 1456 0 
L 2041 0 
L 2041 4656 
z
" transform="scale(0.015625)"/>
      <path id="Inter-Regular-369" d="M 1681 -75 
C 2500 -75 3059 372 3059 984 
C 3059 1463 2763 1778 2128 1928 
L 1600 2053 
C 1191 2150 1013 2294 1013 2553 
C 1013 2844 1325 3059 1741 3059 
C 2191 3059 2388 2816 2484 2566 
L 2994 2697 
C 2834 3188 2456 3538 1738 3538 
C 994 3538 444 3119 444 2519 
C 444 2028 747 1716 1381 1566 
L 1963 1428 
C 2306 1347 2475 1188 2475 947 
C 2475 659 2163 419 1675 419 
C 1256 419 972 591 872 975 
L 338 847 
C 463 244 963 -75 1681 -75 
z
" transform="scale(0.015625)"/>
      <path id="Inter-Regular-37b" d="M 1869 3494 
L 1150 3494 
L 1150 4325 
L 588 4325 
L 588 3494 
L 63 3494 
L 63 3013 
L 588 3013 
L 588 863 
C 588 291 944 -44 1547 -44 
C 1691 -44 1850 -22 1966 19 
L 1850 494 
C 1756 475 1634 456 1563 456 
C 1266 456 1150 594 1150 906 
L 1150 3013 
L 1869 3013 
L 1869 3494 
z
" transform="scale(0.015625)"/>
      <path id="Inter-Regular-256" d="M 1803 -75 
C 2469 -75 2703 347 2819 541 
L 2881 541 
L 2881 0 
L 3425 0 
L 3425 4656 
L 2863 4656 
L 2863 2934 
L 2819 2934 
C 2703 3119 2488 3538 1806 3538 
C 934 3538 325 2844 325 1738 
C 325 625 931 -75 1803 -75 
z
M 1888 428 
C 1234 428 897 1009 897 1744 
C 897 2469 1225 3034 1888 3034 
C 2531 3034 2869 2516 2869 1744 
C 2869 966 2522 428 1888 428 
z
" transform="scale(0.015625)"/>
      <path id="Inter-Regular-356" d="M 494 0 
L 1056 0 
L 1056 2188 
C 1056 2659 1425 3000 1928 3000 
C 2078 3000 2231 2975 2266 2969 
L 2266 3534 
C 2200 3538 2063 3544 1981 3544 
C 1566 3544 1203 3309 1075 2956 
L 1038 2956 
L 1038 3494 
L 494 3494 
L 494 0 
z
" transform="scale(0.015625)"/>
      <path id="Inter-Regular-1fc" d="M 1472 -81 
C 2063 -81 2391 228 2509 475 
L 2547 475 
L 2547 0 
L 3100 0 
L 3100 2303 
C 3100 3394 2259 3538 1791 3538 
C 1250 3538 650 3344 381 2709 
L 922 2531 
C 1031 2775 1303 3044 1806 3044 
C 2291 3044 2538 2794 2538 2359 
L 2538 2341 
C 2538 2081 2263 2100 1641 2022 
C 994 1941 281 1794 281 994 
C 281 306 809 -81 1472 -81 
z
M 1569 416 
C 1150 416 847 603 847 966 
C 847 1363 1206 1494 1616 1547 
C 1831 1575 2444 1638 2538 1747 
L 2538 1263 
C 2538 834 2191 416 1569 416 
z
" transform="scale(0.015625)"/>
      <path id="Inter-Regular-3da" d="M 1278 0 
L 1838 0 
L 2291 1581 
C 2403 1972 2513 2409 2619 2853 
C 2725 2406 2831 1981 2947 1581 
L 3400 0 
L 3959 0 
L 5019 3494 
L 4422 3494 
L 3997 1969 
C 3891 1588 3775 1147 3659 613 
C 3550 1153 3438 1597 3338 1969 
L 2925 3494 
L 2325 3494 
L 1906 1969 
C 1800 1581 1688 1134 1575 603 
C 1459 1159 1341 1603 1241 1969 
L 816 3494 
L 219 3494 
L 1278 0 
z
" transform="scale(0.015625)"/>
     </defs>
     <use xlink:href="#Inter-Regular-540"/>
     <use xlink:href="#Inter-Regular-369" transform="translate(40.671875 0)"/>
     <use xlink:href="#Inter-Regular-37b" transform="translate(93.453125 0)"/>
     <use xlink:href="#Inter-Regular-6eb" transform="translate(126.171875 0)"/>
     <use xlink:href="#Inter-Regular-256" transform="translate(154.296875 0)"/>
     <use xlink:href="#Inter-Regular-356" transform="translate(215.53125 0)"/>
     <use xlink:href="#Inter-Regular-1fc" transform="translate(253.171875 0)"/>
     <use xlink:href="#Inter-Regular-3da" transform="translate(309.328125 0)"/>
    </g>
   </g>
   <g id="text_7">
    <!-- 2nd draw -->
    <g style="fill: #6b6b70" transform="translate(309.119883 15.434375) scale(0.085 -0.085)">
     <defs>
      <path id="Inter-Regular-307" d="M 1056 2094 
C 1056 2691 1434 3031 1938 3031 
C 2425 3031 2725 2709 2725 2172 
L 2725 0 
L 3288 0 
L 3288 2219 
C 3288 3103 2813 3538 2106 3538 
C 1638 3538 1263 3341 1038 2847 
L 1034 3494 
L 494 3494 
L 494 0 
L 1056 0 
L 1056 2094 
z
" transform="scale(0.015625)"/>
     </defs>
     <use xlink:href="#Inter-Regular-541"/>
     <use xlink:href="#Inter-Regular-307" transform="translate(60.984375 0)"/>
     <use xlink:href="#Inter-Regular-256" transform="translate(120.0625 0)"/>
     <use xlink:href="#Inter-Regular-6eb" transform="translate(181.296875 0)"/>
     <use xlink:href="#Inter-Regular-256" transform="translate(209.421875 0)"/>
     <use xlink:href="#Inter-Regular-356" transform="translate(270.65625 0)"/>
     <use xlink:href="#Inter-Regular-1fc" transform="translate(308.296875 0)"/>
     <use xlink:href="#Inter-Regular-3da" transform="translate(364.453125 0)"/>
    </g>
   </g>
   <g id="text_8">
    <!-- P(♥ and ♥) = 13/52 × 12/51 -->
    <g style="fill: #0a3fb5" transform="translate(348.754167 37.430033) scale(0.1 -0.1)">
     <defs>
      <path id="Inter-Bold-178" d="M 422 0 
L 1375 0 
L 1375 1522 
L 2216 1522 
C 3288 1522 3903 2163 3903 3084 
C 3903 4000 3297 4656 2238 4656 
L 422 4656 
L 422 0 
z
M 1375 2291 
L 1375 3869 
L 2059 3869 
C 2644 3869 2919 3553 2919 3084 
C 2919 2616 2644 2291 2063 2291 
L 1375 2291 
z
" transform="scale(0.015625)"/>
      <path id="Inter-Bold-5a8" d="M 528 2191 
C 528 1253 806 297 1334 -578 
L 2206 -578 
C 1694 591 1484 1372 1484 2191 
C 1484 3128 1753 4263 2206 5234 
L 1334 5234 
C 863 4478 528 3222 528 2191 
z
" transform="scale(0.015625)"/>
      <path id="Inter-Bold-745" d="M 3275 -75 
L 5606 2263 
C 6166 2822 6166 3747 5603 4297 
C 5034 4853 4150 4847 3581 4294 
L 3275 3994 
L 2963 4294 
C 2397 4841 1503 4853 938 4294 
C 381 3747 378 2822 938 2263 
L 3275 -75 
z
" transform="scale(0.015625)"/>
      <path id="Inter-Bold-6eb" transform="scale(0.015625)"/>
      <path id="Inter-Bold-1fc" d="M 1375 -69 
C 1891 -69 2228 159 2397 484 
L 2428 484 
L 2428 0 
L 3316 0 
L 3316 2353 
C 3316 3200 2584 3538 1834 3538 
C 1053 3538 491 3191 313 2584 
L 1172 2441 
C 1247 2666 1469 2844 1831 2844 
C 2181 2844 2378 2675 2378 2378 
L 2378 2363 
C 2378 2134 2131 2109 1531 2050 
C 844 1984 213 1759 213 978 
C 213 288 709 -69 1375 -69 
z
M 1641 591 
C 1331 591 1113 731 1113 1003 
C 1113 1284 1344 1419 1691 1469 
C 1897 1497 2269 1547 2384 1628 
L 2384 1250 
C 2384 881 2078 591 1641 591 
z
" transform="scale(0.015625)"/>
      <path id="Inter-Bold-307" d="M 1338 2022 
C 1338 2484 1616 2753 2016 2753 
C 2409 2753 2647 2494 2647 2059 
L 2647 0 
L 3584 0 
L 3584 2222 
C 3584 3041 3109 3538 2384 3538 
C 1847 3538 1494 3259 1297 2772 
L 1284 3494 
L 400 3494 
L 400 0 
L 1338 0 
L 1338 2022 
z
" transform="scale(0.015625)"/>
      <path id="Inter-Bold-256" d="M 1678 -59 
C 2247 -59 2538 278 2666 559 
L 2713 559 
L 2713 0 
L 3634 0 
L 3634 4656 
L 2697 4656 
L 2697 2906 
L 2666 2906 
C 2541 3184 2266 3538 1672 3538 
C 897 3538 253 2934 253 1741 
C 253 578 872 -59 1678 -59 
z
M 1966 694 
C 1478 694 1216 1128 1216 1744 
C 1216 2356 1472 2788 1966 2788 
C 2447 2788 2716 2378 2716 1744 
C 2716 1113 2444 694 1966 694 
z
" transform="scale(0.015625)"/>
      <path id="Inter-Bold-5a9" d="M 209 -578 
L 1078 -578 
C 1603 291 1884 1247 1884 2191 
C 1884 3222 1550 4481 1078 5234 
L 209 5234 
C 659 4263 928 3128 928 2191 
C 928 1381 728 606 209 -578 
z
" transform="scale(0.015625)"/>
      <path id="Inter-Bold-5ff" d="M 616 1188 
L 3731 1188 
L 3731 1978 
L 616 1978 
L 616 1188 
z
M 616 2684 
L 3731 2684 
L 3731 3472 
L 616 3472 
L 616 2684 
z
" transform="scale(0.015625)"/>
      <path id="Inter-Bold-540" d="M 2341 4656 
L 1319 4656 
L 291 3934 
L 291 3063 
L 1356 3816 
L 1388 3816 
L 1388 0 
L 2341 0 
L 2341 4656 
z
" transform="scale(0.015625)"/>
      <path id="Inter-Bold-543" d="M 2059 -63 
C 3097 -63 3838 509 3838 1303 
C 3838 1881 3475 2297 2797 2388 
L 2797 2422 
C 3313 2522 3669 2891 3669 3413 
C 3669 4141 3031 4719 2075 4719 
C 1128 4719 413 4163 400 3366 
L 1319 3366 
C 1328 3728 1663 3956 2069 3956 
C 2472 3956 2744 3713 2744 3353 
C 2744 2981 2428 2728 1975 2728 
L 1544 2728 
L 1544 2019 
L 1975 2019 
C 2516 2019 2844 1750 2844 1366 
C 2844 988 2522 728 2063 728 
C 1622 728 1284 956 1269 1306 
L 309 1306 
C 322 497 1047 -63 2059 -63 
z
" transform="scale(0.015625)"/>
      <path id="Inter-Bold-5b1" d="M 2400 4875 
L 1588 4875 
L 88 -700 
L 900 -700 
L 2400 4875 
z
" transform="scale(0.015625)"/>
      <path id="Inter-Bold-545" d="M 2075 -63 
C 3097 -63 3797 609 3797 1547 
C 3797 2441 3178 3078 2338 3078 
C 1934 3078 1584 2916 1419 2691 
L 1394 2691 
L 1516 3869 
L 3541 3869 
L 3541 4656 
L 725 4656 
L 500 2213 
L 1356 2063 
C 1500 2247 1778 2369 2056 2369 
C 2534 2369 2872 2022 2872 1525 
C 2872 1031 2541 694 2075 694 
C 1675 694 1350 941 1331 1306 
L 403 1306 
C 422 509 1119 -63 2075 -63 
z
" transform="scale(0.015625)"/>
      <path id="Inter-Bold-541" d="M 388 0 
L 3681 0 
L 3681 784 
L 1713 784 
L 1713 819 
L 2416 1513 
C 3369 2391 3619 2822 3619 3344 
C 3619 4150 2963 4719 1978 4719 
C 1013 4719 344 4134 344 3228 
L 1256 3228 
C 1256 3681 1538 3956 1972 3956 
C 2388 3956 2694 3700 2694 3284 
C 2694 2909 2459 2647 2038 2234 
L 388 688 
L 388 0 
z
" transform="scale(0.015625)"/>
      <path id="Inter-Bold-603" d="M 3241 684 
L 3819 1266 
L 2759 2328 
L 3819 3384 
L 3241 3975 
L 2178 2909 
L 1116 3975 
L 534 3384 
L 1594 2328 
L 534 1266 
L 1116 684 
L 2178 1747 
L 3241 684 
z
" transform="scale(0.015625)"/>
     </defs>
     <use xlink:href="#Inter-Bold-178"/>
     <use xlink:href="#Inter-Bold-5a8" transform="translate(64.796875 0)"/>
     <use xlink:href="#Inter-Bold-745" transform="translate(102.5 0)"/>
     <use xlink:href="#Inter-Bold-6eb" transform="translate(204.75 0)"/>
     <use xlink:href="#Inter-Bold-1fc" transform="translate(228.4375 0)"/>
     <use xlink:href="#Inter-Bold-307" transform="translate(286.5 0)"/>
     <use xlink:href="#Inter-Bold-256" transform="translate(348.75 0)"/>
     <use xlink:href="#Inter-Bold-6eb" transform="translate(411.78125 0)"/>
     <use xlink:href="#Inter-Bold-745" transform="translate(435.46875 0)"/>
     <use xlink:href="#Inter-Bold-5a9" transform="translate(537.71875 0)"/>
     <use xlink:href="#Inter-Bold-6eb" transform="translate(575.421875 0)"/>
     <use xlink:href="#Inter-Bold-5ff" transform="translate(599.109375 0)"/>
     <use xlink:href="#Inter-Bold-6eb" transform="translate(666.984375 0)"/>
     <use xlink:href="#Inter-Bold-540" transform="translate(690.671875 0)"/>
     <use xlink:href="#Inter-Bold-543" transform="translate(733.78125 0)"/>
     <use xlink:href="#Inter-Bold-5b1" transform="translate(798.328125 0)"/>
     <use xlink:href="#Inter-Bold-545" transform="translate(837.140625 0)"/>
     <use xlink:href="#Inter-Bold-541" transform="translate(901.0625 0)"/>
     <use xlink:href="#Inter-Bold-6eb" transform="translate(964.046875 0)"/>
     <use xlink:href="#Inter-Bold-603" transform="translate(987.734375 0)"/>
     <use xlink:href="#Inter-Bold-6eb" transform="translate(1055.609375 0)"/>
     <use xlink:href="#Inter-Bold-540" transform="translate(1079.296875 0)"/>
     <use xlink:href="#Inter-Bold-541" transform="translate(1122.40625 0)"/>
     <use xlink:href="#Inter-Bold-5b1" transform="translate(1185.390625 0)"/>
     <use xlink:href="#Inter-Bold-545" transform="translate(1224.203125 0)"/>
     <use xlink:href="#Inter-Bold-540" transform="translate(1288.125 0)"/>
    </g>
   </g>
   <g id="text_9">
    <!-- After one heart is gone, only 12 hearts remain in 51 cards. -->
    <g style="fill: #16161a" transform="translate(99.217448 201.053771) scale(0.1 -0.1)">
     <defs>
      <path id="Inter-SemiBold-2" d="M 156 0 
L 1069 0 
L 1450 1153 
L 3191 1153 
L 3588 0 
L 4503 0 
L 2841 4656 
L 1781 4656 
L 156 0 
z
M 1672 1825 
L 1869 2419 
C 1997 2834 2138 3356 2303 4006 
C 2475 3363 2622 2847 2759 2419 
L 2963 1825 
L 1672 1825 
z
" transform="scale(0.015625)"/>
      <path id="Inter-SemiBold-288" d="M 2269 3494 
L 1513 3494 
L 1513 3766 
C 1513 4041 1631 4197 1938 4197 
C 2072 4197 2178 4169 2247 4147 
L 2413 4778 
C 2306 4816 2075 4875 1788 4875 
C 1188 4875 703 4525 703 3828 
L 703 3494 
L 63 3494 
L 63 2856 
L 703 2856 
L 703 0 
L 1513 0 
L 1513 2856 
L 2269 2856 
L 2269 3494 
z
" transform="scale(0.015625)"/>
      <path id="Inter-SemiBold-37b" d="M 2047 3494 
L 1372 3494 
L 1372 4325 
L 559 4325 
L 559 3494 
L 63 3494 
L 63 2856 
L 559 2856 
L 559 916 
C 559 297 931 -47 1600 -47 
C 1772 -47 1966 -25 2144 28 
L 2016 656 
C 1938 638 1794 616 1719 616 
C 1472 616 1372 731 1372 984 
L 1372 2856 
L 2047 2856 
L 2047 3494 
z
" transform="scale(0.015625)"/>
      <path id="Inter-SemiBold-267" d="M 1975 -72 
C 2753 -72 3297 300 3466 866 
L 2719 1019 
C 2609 722 2341 566 1984 566 
C 1463 566 1109 897 1088 1519 
L 3519 1519 
L 3519 1775 
C 3519 3000 2775 3538 1922 3538 
C 922 3538 278 2800 278 1725 
C 278 631 922 -72 1975 -72 
z
M 1091 2072 
C 1128 2538 1428 2900 1925 2900 
C 2409 2900 2681 2572 2728 2072 
L 1091 2072 
z
" transform="scale(0.015625)"/>
      <path id="Inter-SemiBold-356" d="M 431 0 
L 1244 0 
L 1244 2056 
C 1244 2500 1578 2813 2031 2813 
C 2175 2813 2347 2791 2416 2772 
L 2416 3519 
C 2338 3531 2209 3541 2119 3541 
C 1719 3541 1381 3313 1256 2909 
L 1219 2909 
L 1219 3494 
L 431 3494 
L 431 0 
z
" transform="scale(0.015625)"/>
      <path id="Inter-SemiBold-6eb" transform="scale(0.015625)"/>
      <path id="Inter-SemiBold-318" d="M 1947 -72 
C 2966 -72 3619 653 3619 1728 
C 3619 2816 2966 3538 1947 3538 
C 928 3538 278 2816 278 1728 
C 278 653 928 -72 1947 -72 
z
M 1947 588 
C 1381 588 1106 1094 1106 1731 
C 1106 2375 1381 2878 1947 2878 
C 2516 2878 2794 2375 2794 1731 
C 2794 1094 2516 588 1947 588 
z
" transform="scale(0.015625)"/>
      <path id="Inter-SemiBold-307" d="M 1244 2047 
C 1244 2553 1556 2847 1991 2847 
C 2416 2847 2672 2566 2672 2097 
L 2672 0 
L 3484 0 
L 3484 2222 
C 3484 3063 3009 3538 2291 3538 
C 1778 3538 1416 3288 1209 2797 
L 1200 3494 
L 431 3494 
L 431 0 
L 1244 0 
L 1244 2047 
z
" transform="scale(0.015625)"/>
      <path id="Inter-SemiBold-29f" d="M 1244 2047 
C 1244 2553 1556 2847 1991 2847 
C 2416 2847 2672 2566 2672 2097 
L 2672 0 
L 3488 0 
L 3488 2222 
C 3488 3063 3009 3538 2291 3538 
C 1794 3538 1441 3306 1231 2847 
L 1231 4656 
L 431 4656 
L 431 0 
L 1244 0 
L 1244 2047 
z
" transform="scale(0.015625)"/>
      <path id="Inter-SemiBold-1fc" d="M 1406 -72 
C 1950 -72 2281 181 2434 481 
L 2466 481 
L 2466 0 
L 3244 0 
L 3244 2334 
C 3244 3266 2475 3538 1819 3538 
C 1119 3538 544 3241 338 2625 
L 1091 2472 
C 1175 2703 1416 2913 1822 2913 
C 2219 2913 2431 2713 2431 2372 
L 2431 2356 
C 2431 2116 2175 2106 1569 2041 
C 894 1969 238 1769 238 981 
C 238 294 741 -72 1406 -72 
z
M 1616 531 
C 1272 531 1025 688 1025 991 
C 1025 1309 1300 1444 1666 1494 
C 1875 1522 2328 1578 2438 1666 
L 2438 1253 
C 2438 866 2116 531 1616 531 
z
" transform="scale(0.015625)"/>
      <path id="Inter-SemiBold-2b2" d="M 431 0 
L 1244 0 
L 1244 3494 
L 431 3494 
L 431 0 
z
M 838 3988 
C 1097 3988 1313 4188 1313 4434 
C 1313 4681 1097 4878 838 4878 
C 578 4878 366 4681 366 4434 
C 366 4188 578 3988 838 3988 
z
" transform="scale(0.015625)"/>
      <path id="Inter-SemiBold-369" d="M 1753 -72 
C 2634 -72 3253 384 3253 1047 
C 3253 1538 2938 1850 2275 1991 
L 1681 2116 
C 1325 2194 1184 2322 1184 2525 
C 1184 2763 1447 2931 1791 2931 
C 2166 2931 2366 2738 2447 2494 
L 3172 2638 
C 3031 3178 2572 3538 1781 3538 
C 944 3538 372 3122 372 2475 
C 372 1963 694 1641 1353 1497 
L 1950 1369 
C 2269 1300 2422 1172 2422 969 
C 2422 731 2169 550 1769 550 
C 1372 550 1128 716 1034 1063 
L 275 919 
C 397 284 950 -72 1753 -72 
z
" transform="scale(0.015625)"/>
      <path id="Inter-SemiBold-293" d="M 1938 -1381 
C 2878 -1381 3572 -944 3572 -9 
L 3572 3494 
L 2775 3494 
L 2775 2916 
L 2731 2916 
C 2606 3163 2341 3538 1722 3538 
C 916 3538 278 2903 278 1756 
C 278 619 913 53 1716 53 
C 2319 53 2575 372 2700 625 
L 2769 625 
L 2769 -34 
C 2769 -534 2438 -763 1934 -763 
C 1425 -763 1209 -522 1100 -325 
L 413 -572 
C 588 -1034 1097 -1381 1938 -1381 
z
M 1944 694 
C 1400 694 1109 1119 1109 1763 
C 1109 2397 1394 2869 1944 2869 
C 2481 2869 2772 2425 2772 1763 
C 2772 1094 2475 694 1944 694 
z
" transform="scale(0.015625)"/>
      <path id="Inter-SemiBold-5df" d="M 381 -1197 
L 950 -1197 
L 1497 688 
L 656 688 
L 381 -1197 
z
" transform="scale(0.015625)"/>
      <path id="Inter-SemiBold-2e2" d="M 1244 4656 
L 431 4656 
L 431 0 
L 1244 0 
L 1244 4656 
z
" transform="scale(0.015625)"/>
      <path id="Inter-SemiBold-3e8" d="M 397 -1247 
C 506 -1291 709 -1331 941 -1331 
C 1572 -1331 1931 -1009 2144 -450 
L 3644 3494 
L 2784 3494 
L 2125 1594 
C 2022 1294 1944 991 1866 684 
C 1797 991 1728 1291 1628 1594 
L 991 3494 
L 122 3494 
L 1441 -13 
L 1391 -234 
C 1306 -634 1050 -734 684 -638 
L 588 -613 
L 397 -1247 
z
" transform="scale(0.015625)"/>
      <path id="Inter-SemiBold-300" d="M 431 0 
L 1244 0 
L 1244 2141 
C 1244 2606 1538 2856 1894 2856 
C 2238 2856 2484 2625 2484 2269 
L 2484 0 
L 3278 0 
L 3278 2194 
C 3278 2584 3519 2856 3913 2856 
C 4247 2856 4516 2663 4516 2231 
L 4516 0 
L 5331 0 
L 5331 2356 
C 5331 3131 4850 3550 4222 3550 
C 3731 3550 3294 3294 3106 2791 
C 2956 3288 2659 3550 2209 3550 
C 1794 3550 1400 3325 1219 2828 
L 1194 3494 
L 431 3494 
L 431 0 
z
" transform="scale(0.015625)"/>
      <path id="Inter-SemiBold-24b" d="M 1947 -72 
C 2731 -72 3313 353 3463 1050 
L 2703 1209 
C 2619 831 2353 588 1953 588 
C 1388 588 1106 1084 1106 1731 
C 1106 2384 1388 2878 1953 2878 
C 2347 2878 2606 2644 2694 2281 
L 3453 2441 
C 3303 3122 2725 3538 1947 3538 
C 928 3538 278 2816 278 1728 
C 278 653 928 -72 1947 -72 
z
" transform="scale(0.015625)"/>
      <path id="Inter-SemiBold-256" d="M 1719 -63 
C 2322 -63 2591 300 2719 553 
L 2769 553 
L 2769 0 
L 3566 0 
L 3566 4656 
L 2753 4656 
L 2753 2916 
L 2719 2916 
C 2594 3163 2338 3538 1716 3538 
C 909 3538 278 2903 278 1741 
C 278 594 891 -63 1719 -63 
z
M 1941 606 
C 1397 606 1109 1088 1109 1744 
C 1109 2394 1391 2869 1941 2869 
C 2475 2869 2769 2425 2769 1744 
C 2769 1063 2469 606 1941 606 
z
" transform="scale(0.015625)"/>
      <path id="Inter-SemiBold-5e0" d="M 1019 -53 
C 1300 -53 1522 166 1522 447 
C 1522 725 1300 944 1019 944 
C 738 944 519 725 519 447 
C 519 166 738 -53 1019 -53 
z
" transform="scale(0.015625)"/>
     </defs>
     <use xlink:href="#Inter-SemiBold-2"/>
     <use xlink:href="#Inter-SemiBold-288" transform="translate(72.171875 0)"/>
     <use xlink:href="#Inter-SemiBold-37b" transform="translate(107.28125 0)"/>
     <use xlink:href="#Inter-SemiBold-267" transform="translate(141.609375 0)"/>
     <use xlink:href="#Inter-SemiBold-356" transform="translate(200.734375 0)"/>
     <use xlink:href="#Inter-SemiBold-6eb" transform="translate(240.4375 0)"/>
     <use xlink:href="#Inter-SemiBold-318" transform="translate(265.640625 0)"/>
     <use xlink:href="#Inter-SemiBold-307" transform="translate(326.53125 0)"/>
     <use xlink:href="#Inter-SemiBold-267" transform="translate(387.71875 0)"/>
     <use xlink:href="#Inter-SemiBold-6eb" transform="translate(446.84375 0)"/>
     <use xlink:href="#Inter-SemiBold-29f" transform="translate(472.046875 0)"/>
     <use xlink:href="#Inter-SemiBold-267" transform="translate(533.28125 0)"/>
     <use xlink:href="#Inter-SemiBold-1fc" transform="translate(593.390625 0)"/>
     <use xlink:href="#Inter-SemiBold-356" transform="translate(650.8125 0)"/>
     <use xlink:href="#Inter-SemiBold-37b" transform="translate(692.328125 0)"/>
     <use xlink:href="#Inter-SemiBold-6eb" transform="translate(727.625 0)"/>
     <use xlink:href="#Inter-SemiBold-2b2" transform="translate(752.828125 0)"/>
     <use xlink:href="#Inter-SemiBold-369" transform="translate(779 0)"/>
     <use xlink:href="#Inter-SemiBold-6eb" transform="translate(833.9375 0)"/>
     <use xlink:href="#Inter-SemiBold-293" transform="translate(859.140625 0)"/>
     <use xlink:href="#Inter-SemiBold-318" transform="translate(921.6875 0)"/>
     <use xlink:href="#Inter-SemiBold-307" transform="translate(982.578125 0)"/>
     <use xlink:href="#Inter-SemiBold-267" transform="translate(1043.765625 0)"/>
     <use xlink:href="#Inter-SemiBold-5df" transform="translate(1102.890625 0)"/>
     <use xlink:href="#Inter-SemiBold-6eb" transform="translate(1132.734375 0)"/>
     <use xlink:href="#Inter-SemiBold-318" transform="translate(1157.9375 0)"/>
     <use xlink:href="#Inter-SemiBold-307" transform="translate(1218.828125 0)"/>
     <use xlink:href="#Inter-SemiBold-2e2" transform="translate(1280.015625 0)"/>
     <use xlink:href="#Inter-SemiBold-3e8" transform="translate(1307.015625 0)"/>
     <use xlink:href="#Inter-SemiBold-6eb" transform="translate(1365.859375 0)"/>
     <use xlink:href="#Inter-SemiBold-540" transform="translate(1391.0625 0)"/>
     <use xlink:href="#Inter-SemiBold-541" transform="translate(1433.34375 0)"/>
     <use xlink:href="#Inter-SemiBold-6eb" transform="translate(1495.65625 0)"/>
     <use xlink:href="#Inter-SemiBold-29f" transform="translate(1520.859375 0)"/>
     <use xlink:href="#Inter-SemiBold-267" transform="translate(1582.09375 0)"/>
     <use xlink:href="#Inter-SemiBold-1fc" transform="translate(1642.203125 0)"/>
     <use xlink:href="#Inter-SemiBold-356" transform="translate(1699.625 0)"/>
     <use xlink:href="#Inter-SemiBold-37b" transform="translate(1741.140625 0)"/>
     <use xlink:href="#Inter-SemiBold-369" transform="translate(1775.609375 0)"/>
     <use xlink:href="#Inter-SemiBold-6eb" transform="translate(1830.546875 0)"/>
     <use xlink:href="#Inter-SemiBold-356" transform="translate(1855.75 0)"/>
     <use xlink:href="#Inter-SemiBold-267" transform="translate(1893.25 0)"/>
     <use xlink:href="#Inter-SemiBold-300" transform="translate(1952.375 0)"/>
     <use xlink:href="#Inter-SemiBold-1fc" transform="translate(2042.421875 0)"/>
     <use xlink:href="#Inter-SemiBold-2b2" transform="translate(2099.84375 0)"/>
     <use xlink:href="#Inter-SemiBold-307" transform="translate(2126.015625 0)"/>
     <use xlink:href="#Inter-SemiBold-6eb" transform="translate(2187.203125 0)"/>
     <use xlink:href="#Inter-SemiBold-2b2" transform="translate(2212.40625 0)"/>
     <use xlink:href="#Inter-SemiBold-307" transform="translate(2238.578125 0)"/>
     <use xlink:href="#Inter-SemiBold-6eb" transform="translate(2299.765625 0)"/>
     <use xlink:href="#Inter-SemiBold-545" transform="translate(2324.96875 0)"/>
     <use xlink:href="#Inter-SemiBold-540" transform="translate(2387.859375 0)"/>
     <use xlink:href="#Inter-SemiBold-6eb" transform="translate(2430.140625 0)"/>
     <use xlink:href="#Inter-SemiBold-24b" transform="translate(2455.34375 0)"/>
     <use xlink:href="#Inter-SemiBold-1fc" transform="translate(2514.578125 0)"/>
     <use xlink:href="#Inter-SemiBold-356" transform="translate(2572 0)"/>
     <use xlink:href="#Inter-SemiBold-256" transform="translate(2609.5 0)"/>
     <use xlink:href="#Inter-SemiBold-369" transform="translate(2671.90625 0)"/>
     <use xlink:href="#Inter-SemiBold-5e0" transform="translate(2726.84375 0)"/>
    </g>
   </g>
   <g id="text_10">
    <!-- P(2 hearts in a row) = 13/52 × 12/51 = 1/17 ≈ 5.9% -->
    <g style="fill: #16161a" transform="translate(114.647057 225.531054) scale(0.105 -0.105)">
     <defs>
      <path id="Inter-Regular-178" d="M 563 0 
L 1156 0 
L 1156 1684 
L 2159 1684 
C 3244 1684 3744 2344 3744 3175 
C 3744 4003 3244 4656 2156 4656 
L 563 4656 
L 563 0 
z
M 1156 2206 
L 1156 4134 
L 2125 4134 
C 2869 4134 3153 3725 3153 3175 
C 3153 2622 2869 2206 2131 2206 
L 1156 2206 
z
" transform="scale(0.015625)"/>
      <path id="Inter-Regular-5a8" d="M 681 2191 
C 681 1278 956 325 1488 -578 
L 2034 -578 
C 1497 531 1253 1363 1253 2191 
C 1253 3103 1550 4250 2034 5234 
L 1488 5234 
C 1019 4463 681 3206 681 2191 
z
" transform="scale(0.015625)"/>
      <path id="Inter-Regular-29f" d="M 1056 2094 
C 1056 2691 1434 3031 1938 3031 
C 2425 3031 2725 2709 2725 2172 
L 2725 0 
L 3291 0 
L 3291 2219 
C 3291 3103 2813 3538 2106 3538 
C 1650 3538 1284 3353 1056 2888 
L 1056 4656 
L 494 4656 
L 494 0 
L 1056 0 
L 1056 2094 
z
" transform="scale(0.015625)"/>
      <path id="Inter-Regular-2b2" d="M 494 0 
L 1056 0 
L 1056 3494 
L 494 3494 
L 494 0 
z
M 778 4066 
C 994 4066 1172 4231 1172 4438 
C 1172 4644 994 4809 778 4809 
C 566 4809 388 4644 388 4438 
C 388 4231 566 4066 778 4066 
z
" transform="scale(0.015625)"/>
      <path id="Inter-Regular-5a0" d="M 300 -872 
L 847 -872 
C 1369 16 1653 969 1653 1897 
C 1653 2909 1316 4172 847 4941 
L 300 4941 
C 784 3956 1081 2809 1081 1897 
C 1081 1094 853 269 300 -872 
z
" transform="scale(0.015625)"/>
      <path id="Inter-Regular-5ff" d="M 706 1394 
L 3531 1394 
L 3531 1913 
L 706 1913 
L 706 1394 
z
M 706 2750 
L 3531 2750 
L 3531 3269 
L 706 3269 
L 706 2750 
z
" transform="scale(0.015625)"/>
      <path id="Inter-Regular-543" d="M 1984 -63 
C 2897 -63 3572 503 3572 1266 
C 3572 1853 3225 2284 2631 2381 
L 2631 2419 
C 3106 2559 3403 2944 3403 3469 
C 3403 4131 2872 4719 2003 4719 
C 1184 4719 516 4216 491 3484 
L 1063 3484 
C 1081 3938 1516 4203 1991 4203 
C 2497 4203 2822 3900 2822 3438 
C 2822 2956 2447 2644 1903 2644 
L 1525 2644 
L 1525 2128 
L 1903 2128 
C 2594 2128 2984 1775 2984 1272 
C 2984 788 2559 459 1975 459 
C 1444 459 1025 731 991 1175 
L 391 1175 
C 422 438 1072 -63 1984 -63 
z
" transform="scale(0.015625)"/>
      <path id="Inter-Regular-5b1" d="M 2163 4875 
L 1644 4875 
L 144 -700 
L 663 -700 
L 2163 4875 
z
" transform="scale(0.015625)"/>
      <path id="Inter-Regular-603" d="M 3231 859 
L 3594 1222 
L 2488 2328 
L 3594 3434 
L 3231 3803 
L 2125 2694 
L 1019 3803 
L 656 3434 
L 1763 2328 
L 656 1222 
L 1019 859 
L 2125 1966 
L 3231 859 
z
" transform="scale(0.015625)"/>
      <path id="Inter-Regular-548" d="M 625 0 
L 1250 0 
L 3316 4103 
L 3316 4656 
L 306 4656 
L 306 4134 
L 2694 4134 
L 2694 4097 
L 625 0 
z
" transform="scale(0.015625)"/>
      <path id="Inter-Regular-606" d="M 525 1175 
L 1038 1175 
C 1028 1566 1206 1719 1453 1719 
C 1616 1719 1725 1644 1934 1463 
C 2275 1169 2494 1047 2800 1047 
C 3278 1047 3725 1359 3709 2113 
L 3197 2113 
C 3206 1747 3044 1559 2781 1559 
C 2622 1559 2525 1628 2300 1816 
C 1959 2100 1744 2234 1431 2234 
C 963 2234 519 1941 525 1175 
z
M 525 2550 
L 1038 2550 
C 1028 2953 1209 3103 1453 3103 
C 1619 3103 1728 3025 1947 2834 
C 2284 2541 2500 2428 2800 2428 
C 3275 2428 3725 2734 3709 3491 
L 3197 3491 
C 3206 3128 3044 2938 2781 2938 
C 2619 2938 2519 3016 2297 3200 
C 1963 3478 1744 3616 1431 3616 
C 963 3616 519 3319 525 2550 
z
" transform="scale(0.015625)"/>
      <path id="Inter-Regular-5e0" d="M 922 -41 
C 1156 -41 1344 147 1344 381 
C 1344 616 1156 803 922 803 
C 688 803 500 616 500 381 
C 500 147 688 -41 922 -41 
z
" transform="scale(0.015625)"/>
      <path id="Inter-Regular-54a" d="M 1884 -63 
C 2938 -63 3588 866 3588 2513 
C 3588 4225 2728 4706 1963 4719 
C 1006 4734 381 4025 381 3156 
C 381 2259 1044 1616 1847 1616 
C 2334 1616 2744 1856 2994 2238 
L 3031 2238 
C 3031 1109 2594 463 1884 463 
C 1394 463 1103 772 1006 1184 
L 419 1184 
C 528 441 1094 -63 1884 -63 
z
M 1934 2134 
C 1372 2134 963 2588 963 3159 
C 963 3734 1391 4197 1953 4197 
C 2525 4197 2947 3706 2947 3172 
C 2947 2625 2500 2134 1934 2134 
z
" transform="scale(0.015625)"/>
      <path id="Inter-Regular-6ca" d="M 4656 -91 
C 5247 -91 5566 344 5566 856 
L 5566 1100 
C 5566 1609 5256 2044 4656 2044 
C 4069 2044 3741 1613 3741 1100 
L 3741 856 
C 3741 344 4059 -91 4656 -91 
z
M 1634 2597 
C 2225 2597 2544 3031 2544 3544 
L 2544 3788 
C 2544 4297 2234 4731 1634 4731 
C 1047 4731 719 4300 719 3788 
L 719 3544 
C 719 3031 1038 2597 1634 2597 
z
M 1263 0 
L 1791 0 
L 4991 4656 
L 4463 4656 
L 1263 0 
z
M 4656 319 
C 4334 319 4219 578 4219 856 
L 4219 1100 
C 4219 1375 4344 1638 4656 1638 
C 4981 1638 5088 1375 5088 1100 
L 5088 856 
C 5088 578 4972 319 4656 319 
z
M 1634 3006 
C 1313 3006 1197 3266 1197 3544 
L 1197 3788 
C 1197 4063 1322 4325 1634 4325 
C 1959 4325 2066 4063 2066 3788 
L 2066 3544 
C 2066 3266 1950 3006 1634 3006 
z
" transform="scale(0.015625)"/>
     </defs>
     <use xlink:href="#Inter-Regular-178"/>
     <use xlink:href="#Inter-Regular-5a8" transform="translate(63.875 0)"/>
     <use xlink:href="#Inter-Regular-541" transform="translate(100.34375 0)"/>
     <use xlink:href="#Inter-Regular-6eb" transform="translate(161.328125 0)"/>
     <use xlink:href="#Inter-Regular-29f" transform="translate(189.453125 0)"/>
     <use xlink:href="#Inter-Regular-267" transform="translate(248.578125 0)"/>
     <use xlink:href="#Inter-Regular-1fc" transform="translate(307.859375 0)"/>
     <use xlink:href="#Inter-Regular-356" transform="translate(364.015625 0)"/>
     <use xlink:href="#Inter-Regular-37b" transform="translate(403.21875 0)"/>
     <use xlink:href="#Inter-Regular-369" transform="translate(434.96875 0)"/>
     <use xlink:href="#Inter-Regular-6eb" transform="translate(487.75 0)"/>
     <use xlink:href="#Inter-Regular-2b2" transform="translate(515.875 0)"/>
     <use xlink:href="#Inter-Regular-307" transform="translate(540.09375 0)"/>
     <use xlink:href="#Inter-Regular-6eb" transform="translate(599.171875 0)"/>
     <use xlink:href="#Inter-Regular-1fc" transform="translate(627.296875 0)"/>
     <use xlink:href="#Inter-Regular-6eb" transform="translate(683.453125 0)"/>
     <use xlink:href="#Inter-Regular-356" transform="translate(711.578125 0)"/>
     <use xlink:href="#Inter-Regular-318" transform="translate(747.5625 0)"/>
     <use xlink:href="#Inter-Regular-3da" transform="translate(805.71875 0)"/>
     <use xlink:href="#Inter-Regular-5a0" transform="translate(887.5625 0)"/>
     <use xlink:href="#Inter-Regular-6eb" transform="translate(924.03125 0)"/>
     <use xlink:href="#Inter-Regular-5ff" transform="translate(952.15625 0)"/>
     <use xlink:href="#Inter-Regular-6eb" transform="translate(1018.3125 0)"/>
     <use xlink:href="#Inter-Regular-540" transform="translate(1046.4375 0)"/>
     <use xlink:href="#Inter-Regular-543" transform="translate(1087.109375 0)"/>
     <use xlink:href="#Inter-Regular-5b1" transform="translate(1148.875 0)"/>
     <use xlink:href="#Inter-Regular-545" transform="translate(1184.90625 0)"/>
     <use xlink:href="#Inter-Regular-541" transform="translate(1245.703125 0)"/>
     <use xlink:href="#Inter-Regular-6eb" transform="translate(1306.6875 0)"/>
     <use xlink:href="#Inter-Regular-603" transform="translate(1334.8125 0)"/>
     <use xlink:href="#Inter-Regular-6eb" transform="translate(1400.96875 0)"/>
     <use xlink:href="#Inter-Regular-540" transform="translate(1429.09375 0)"/>
     <use xlink:href="#Inter-Regular-541" transform="translate(1469.765625 0)"/>
     <use xlink:href="#Inter-Regular-5b1" transform="translate(1530.75 0)"/>
     <use xlink:href="#Inter-Regular-545" transform="translate(1566.78125 0)"/>
     <use xlink:href="#Inter-Regular-540" transform="translate(1627.578125 0)"/>
     <use xlink:href="#Inter-Regular-6eb" transform="translate(1668.25 0)"/>
     <use xlink:href="#Inter-Regular-5ff" transform="translate(1696.375 0)"/>
     <use xlink:href="#Inter-Regular-6eb" transform="translate(1762.53125 0)"/>
     <use xlink:href="#Inter-Regular-540" transform="translate(1790.65625 0)"/>
     <use xlink:href="#Inter-Regular-5b1" transform="translate(1831.328125 0)"/>
     <use xlink:href="#Inter-Regular-540" transform="translate(1867.359375 0)"/>
     <use xlink:href="#Inter-Regular-548" transform="translate(1908.03125 0)"/>
     <use xlink:href="#Inter-Regular-6eb" transform="translate(1964.625 0)"/>
     <use xlink:href="#Inter-Regular-606" transform="translate(1992.75 0)"/>
     <use xlink:href="#Inter-Regular-6eb" transform="translate(2058.90625 0)"/>
     <use xlink:href="#Inter-Regular-545" transform="translate(2087.03125 0)"/>
     <use xlink:href="#Inter-Regular-5e0" transform="translate(2145.140625 0)"/>
     <use xlink:href="#Inter-Regular-54a" transform="translate(2173.265625 0)"/>
     <use xlink:href="#Inter-Regular-6ca" transform="translate(2235.28125 0)"/>
    </g>
   </g>
   <g id="text_11">
    <!-- ♥ -->
    <g style="fill: #ffffff" transform="translate(166.163958 57.645884) scale(0.095 -0.095)">
     <use xlink:href="#Inter-Bold-745"/>
    </g>
   </g>
   <g id="text_12">
    <!-- not ♥ -->
    <g style="fill: #16161a" transform="translate(157.429154 155.555016) scale(0.095 -0.095)">
     <defs>
      <path id="Inter-Bold-318" d="M 1963 -69 
C 3013 -69 3672 656 3672 1731 
C 3672 2813 3013 3538 1963 3538 
C 909 3538 253 2813 253 1731 
C 253 656 909 -69 1963 -69 
z
M 1963 669 
C 1463 669 1209 1125 1209 1734 
C 1209 2353 1463 2800 1963 2800 
C 2463 2800 2719 2350 2719 1734 
C 2719 1125 2463 669 1963 669 
z
" transform="scale(0.015625)"/>
      <path id="Inter-Bold-37b" d="M 2134 3494 
L 1481 3494 
L 1481 4325 
L 544 4325 
L 544 3494 
L 63 3494 
L 63 2778 
L 544 2778 
L 544 941 
C 544 300 925 -50 1625 -50 
C 1813 -50 2022 -28 2231 34 
L 2097 738 
C 2028 719 1872 697 1800 697 
C 1572 697 1481 800 1481 1022 
L 1481 2778 
L 2134 2778 
L 2134 3494 
z
" transform="scale(0.015625)"/>
     </defs>
     <use xlink:href="#Inter-Bold-307"/>
     <use xlink:href="#Inter-Bold-318" transform="translate(62.25 0)"/>
     <use xlink:href="#Inter-Bold-37b" transform="translate(123.578125 0)"/>
     <use xlink:href="#Inter-Bold-6eb" transform="translate(160.203125 0)"/>
     <use xlink:href="#Inter-Bold-745" transform="translate(183.890625 0)"/>
    </g>
   </g>
   <g id="text_13">
    <!-- ♥ -->
    <g style="fill: #ffffff" transform="translate(323.230625 37.248148) scale(0.095 -0.095)">
     <use xlink:href="#Inter-Bold-745"/>
    </g>
   </g>
   <g id="text_14">
    <!-- not ♥ -->
    <g style="fill: #16161a" transform="translate(314.49582 78.04362) scale(0.095 -0.095)">
     <use xlink:href="#Inter-Bold-307"/>
     <use xlink:href="#Inter-Bold-318" transform="translate(62.25 0)"/>
     <use xlink:href="#Inter-Bold-37b" transform="translate(123.578125 0)"/>
     <use xlink:href="#Inter-Bold-6eb" transform="translate(160.203125 0)"/>
     <use xlink:href="#Inter-Bold-745" transform="translate(183.890625 0)"/>
    </g>
   </g>
  </g>
 </g>
 <defs>
  <clipPath id="p4b582f70aa">
   <rect x="13.954167" y="13.394601" width="446.4" height="216.216"/>
  </clipPath>
 </defs>
</svg>
